<svg width="35" height="35" viewBox="0 0 35 35" fill="none" xmlns="http://www.w3.org/2000/svg">
<path d="M10.9863 24.9623L14.6484 23.2453L12.0326 18.3585C26.2886 15.1887 26.681 0.660376 15.8255 0C10.9863 0 0 4.49056 0 18.0943C0 27.7094 8.5013 34.8679 17.6566 35C34.9207 35 41.0678 9.37736 23.6729 2.1132C23.6729 2.1132 32.4357 8.84906 31.7818 18.0943C31.1278 27.3396 24.0652 31.3019 17.6566 31.8302C15.4331 32.0943 4.8392 31.1698 3.00815 20.3396C1.1771 9.50943 8.89367 5.41509 8.89367 5.41509C12.3814 3.08176 18.8337 0.79245 20.7955 4.49056C22.7573 8.18868 10.4631 14.1321 3.79289 15.1887L10.9863 24.9623Z" fill="#E76769"/>
<path d="M14.5176 18.6226L17.2642 24.9623L20.7955 23.7736L19.7492 19.9434C19.7492 19.9434 29.9507 15.1887 24.196 7.39622C25.347 13.3132 18.2233 17.3459 14.5176 18.6226Z" fill="#E76769"/>
<path d="M27.0734 9.90566C28.7475 15.2211 24.196 18.8122 21.711 19.9434L23.2805 24.566C31.7556 19.2479 29.3404 12.5765 27.0734 9.90566Z" fill="#E76769"/>
</svg>
