<svg width="145" height="233" viewBox="0 0 145 233" fill="none" xmlns="http://www.w3.org/2000/svg">
<path d="M94.1675 158.935H49.1241C49.1241 149.748 49.7519 141.658 51.0074 134.664C52.3676 127.565 54.6695 121.198 57.913 115.56C61.1566 109.923 65.5511 104.704 71.0965 99.9019C76.0141 95.8306 80.2517 91.916 83.8091 88.1579C87.3666 84.3999 90.087 80.5896 91.9703 76.7271C93.8537 72.8647 94.7953 68.7413 94.7953 64.3569C94.7953 58.9285 94.0106 54.4919 92.4411 51.047C90.9763 47.6021 88.7268 45.0446 85.6925 43.3743C82.7628 41.5997 79.0484 40.7124 74.5493 40.7124C70.8872 40.7124 67.4344 41.5997 64.1909 43.3743C61.052 45.149 58.4885 47.9153 56.5005 51.6734C54.5126 55.3271 53.4139 60.1812 53.2047 66.2359H0C0.313892 50.6817 3.7667 38.0504 10.3584 28.3421C17.0548 18.5293 25.9484 11.3786 37.0392 6.88978C48.2347 2.2966 60.7381 0 74.5493 0C89.8254 0 102.957 2.34879 113.943 7.04637C124.929 11.744 133.352 18.7381 139.211 28.0289C145.07 37.2153 148 48.5417 148 62.0081C148 70.9857 146.274 78.815 142.821 85.496C139.473 92.0726 134.921 98.2316 129.166 103.973C123.516 109.61 117.186 115.665 110.176 122.137C104.107 127.461 99.9745 132.889 97.7773 138.422C95.5801 143.85 94.3768 150.688 94.1675 158.935ZM42.6893 206.537C42.6893 199.021 45.4097 192.757 50.8505 187.747C56.2913 182.632 63.3538 180.074 72.0382 180.074C80.7225 180.074 87.7851 182.632 93.2259 187.747C98.6667 192.757 101.387 199.021 101.387 206.537C101.387 214.053 98.6667 220.369 93.2259 225.484C87.7851 230.495 80.7225 233 72.0382 233C63.3538 233 56.2913 230.495 50.8505 225.484C45.4097 220.369 42.6893 214.053 42.6893 206.537Z" fill="white"/>
</svg>
