<svg width="35" height="35" viewBox="0 0 35 35" fill="none" xmlns="http://www.w3.org/2000/svg">
<path d="M34.8976 16.576L31.063 6.25181C30.9114 5.8435 30.6088 5.51838 30.2112 5.33607C29.8133 5.1541 29.3698 5.13701 28.9615 5.28835L26.3949 6.24149C25.55 6.55539 25.1178 7.49828 25.4316 8.3432L25.4732 8.45531C24.866 8.68581 24.1882 8.43405 23.1523 8.00017C21.6056 7.3526 19.5077 6.48307 16.8445 8.14878C14.6829 6.8034 12.9869 7.13529 11.4848 7.43436C10.7219 7.58598 9.99513 7.72872 9.24461 7.65106C9.22349 7.45384 9.16942 7.2595 9.07611 7.07718C8.87656 6.68767 8.53846 6.39947 8.1242 6.26582L5.51868 5.42535C5.10422 5.2917 4.66146 5.32807 4.27208 5.52713C3.88271 5.72667 3.5945 6.06478 3.461 6.47904L0.0790546 16.9604C-0.197596 17.8183 0.275178 18.7413 1.13309 19.0179L3.73854 19.8587C3.90045 19.9112 4.0696 19.938 4.23982 19.9381C4.49569 19.9381 4.75005 19.8771 4.985 19.7569C5.13013 19.6825 5.25557 19.5835 5.3698 19.4738C5.38586 19.5531 5.40739 19.6315 5.42681 19.7103L4.77452 20.9297C4.4948 21.453 4.44059 22.0875 4.62612 22.6704C4.80672 23.2379 5.18762 23.6911 5.68719 23.9407C6.10644 24.1655 6.58701 24.2492 7.05759 24.1793C6.9275 24.6107 6.92996 25.0839 7.07099 25.5272C7.25159 26.0948 7.63249 26.5481 8.13206 26.7977C8.6546 27.0772 9.2561 27.1355 9.82608 26.9631C10.0503 26.8954 10.2625 26.793 10.455 26.6596C10.6379 27.2183 11.0159 27.6642 11.5098 27.911C12.0322 28.1905 12.6337 28.2488 13.2036 28.0764C13.3288 28.0384 13.4505 27.9897 13.5673 27.9309C13.7387 28.6189 14.2279 29.2317 14.8378 29.5579C15.1291 29.7136 15.4721 29.8139 15.8282 29.8139C16.4753 29.8139 17.1653 29.4823 17.6644 28.5493L17.7618 28.3672L17.8721 28.425L18.1324 28.5608C18.4513 28.7249 18.7629 28.7972 19.0559 28.7972C19.7869 28.7972 20.4009 28.3467 20.7148 27.7484C20.9309 27.3368 21.007 26.8473 20.9021 26.3722C21.1659 26.3859 21.4325 26.3545 21.6932 26.2756C22.2786 26.0982 22.7589 25.7052 23.0458 25.1689C23.2775 24.7356 23.3614 24.2493 23.2915 23.7697C23.7811 23.973 24.3226 23.9994 24.839 23.843C25.4294 23.6641 25.9139 23.2675 26.2032 22.7266C26.4397 22.2843 26.5236 21.7872 26.4485 21.2979C27.2464 21.616 28.0164 21.4705 28.5509 20.8848C29.0929 20.2913 29.2751 19.3819 29.0725 18.5704L29.204 18.5231L29.2115 18.5205L29.2662 18.6676C29.5107 19.3255 30.1365 19.733 30.8004 19.733C30.9941 19.7329 31.1862 19.6983 31.3677 19.6308L33.9342 18.6776C34.7792 18.3637 35.2114 17.421 34.8976 16.576ZM4.89607 18.5145C4.83988 18.6884 4.7184 18.8307 4.55379 18.9149C4.38891 18.9991 4.20263 19.0146 4.02893 18.9587L1.42334 18.1177C1.06186 18.0011 0.86259 17.6123 0.979142 17.2508L4.36122 6.76943C4.41728 6.59559 4.53875 6.45333 4.70329 6.36912C4.8007 6.31885 4.90868 6.29252 5.01829 6.29228C5.08955 6.29232 5.16037 6.30353 5.22816 6.3255L7.83374 7.16612C8.00758 7.22217 8.14984 7.34365 8.23405 7.50819C8.31827 7.6728 8.33379 7.85908 8.27781 8.03305L5.57781 16.4015C5.56599 16.4243 5.55457 16.4477 5.54644 16.473C5.52272 16.5461 5.5044 16.6201 5.48355 16.6938L4.89607 18.5145ZM6.12175 23.1006C5.84093 22.9603 5.62984 22.7057 5.5275 22.3836C5.41895 22.0426 5.44855 21.6753 5.60864 21.3759L6.34556 19.9981C6.3457 19.998 6.3459 19.9979 6.34597 19.9976L6.69795 19.3395C7.02587 18.7267 7.78569 18.4899 8.40229 18.8011C8.80677 19.0839 9.41346 19.6852 8.95313 20.5458L8.70232 21.0147L7.86293 22.584C7.52988 23.2042 6.75455 23.4394 6.12175 23.1006ZM10.3088 25.4391C10.1487 25.7387 9.87974 25.9585 9.55148 26.0579C9.22342 26.1574 8.87759 26.1238 8.56662 25.9577C8.2858 25.8174 8.07471 25.5627 7.97237 25.2405C7.86382 24.8997 7.89356 24.5323 8.05365 24.2331L8.69705 23.0303L9.53644 21.461C9.69654 21.1615 9.96553 20.9419 10.2936 20.8424C10.6218 20.7427 10.9673 20.7764 11.2671 20.9366C11.5666 21.0967 11.7862 21.3657 11.8857 21.694C11.9851 22.022 11.9516 22.3679 11.7913 22.6675L11.5556 23.1084C11.5554 23.1089 11.5551 23.1093 11.5548 23.1098L10.5972 24.9002L10.597 24.9005L10.3088 25.4391ZM12.9292 27.1711C12.6009 27.2706 12.2554 27.237 11.9443 27.0709C11.6635 26.9307 11.4525 26.676 11.3501 26.354C11.2419 26.0134 11.2711 25.6469 11.4306 25.3477L11.4314 25.3464L12.389 23.556L12.3892 23.5553L12.3898 23.5545C12.5501 23.2556 12.8187 23.0366 13.1463 22.9372C13.4742 22.8373 13.82 22.8711 14.1196 23.0314C14.7413 23.364 14.9765 24.1404 14.6441 24.7621L14.1653 25.6574L13.7409 26.4509L13.7404 26.4518L13.6865 26.5525C13.5264 26.8518 13.2573 27.0717 12.9292 27.1711ZM15.2839 28.7238C14.6639 28.3922 14.2202 27.5603 14.5751 26.8969L14.9995 26.1034L15 26.1023C15.1655 25.7938 15.4597 25.5459 15.8075 25.4224C16.1547 25.2989 16.5033 25.3154 16.7893 25.4684C17.4125 25.8016 17.5131 26.0931 17.5343 26.2834C17.5666 26.5712 17.4448 26.9538 17.1398 27.5239L17.1393 27.5252L16.8302 28.1031C16.3067 29.0827 15.6369 28.9124 15.2839 28.7238ZM19.8772 27.3091C19.6542 27.7348 19.1621 28.027 18.5653 27.72L18.3119 27.5877C18.27 27.5656 18.2309 27.5451 18.1946 27.5261C18.3862 27.1001 18.5258 26.6372 18.4744 26.1782C18.4164 25.6607 18.1292 25.2291 17.6082 24.865L19.4709 25.8653C20.0934 26.3024 20.0913 26.9013 19.8772 27.3091ZM27.8523 20.2472C27.5478 20.5811 27.1297 20.6094 26.6095 20.3309L25.2605 19.6094L25.2577 19.6081C25.2439 19.6007 25.2295 19.5964 25.2153 19.5906L20.8654 17.2294C20.6364 17.1045 20.3489 17.1898 20.2242 17.4195C20.1946 17.4741 20.176 17.5339 20.1695 17.5957C20.163 17.6575 20.1688 17.7199 20.1864 17.7795C20.2041 17.839 20.2333 17.8945 20.2724 17.9427C20.3115 17.991 20.3597 18.0311 20.4143 18.0607L24.8563 20.4719C25.1503 20.6443 25.3686 20.9154 25.4691 21.2466C25.5747 21.5951 25.5392 21.9623 25.3689 22.2806C25.1987 22.5988 24.913 22.8322 24.5644 22.9379C24.2152 23.0433 23.8484 23.0079 23.5304 22.8378L22.1892 22.1204C22.1656 22.101 22.1402 22.0839 22.1133 22.0693L18.8764 20.3387C18.8217 20.3094 18.7617 20.2912 18.6999 20.2851C18.6381 20.2789 18.5757 20.2851 18.5162 20.3031C18.4568 20.3211 18.4015 20.3507 18.3535 20.3901C18.3055 20.4296 18.2657 20.478 18.2365 20.5328C18.2072 20.5876 18.1889 20.6476 18.1828 20.7094C18.1767 20.7712 18.1829 20.8336 18.2009 20.8931C18.2189 20.9525 18.2485 21.0078 18.2879 21.0558C18.3273 21.1038 18.3758 21.1436 18.4306 21.1728L21.5861 22.86C21.6095 22.8791 21.6348 22.8966 21.6625 22.9113C21.9761 23.079 22.2062 23.3605 22.3102 23.7041C22.4142 24.0476 22.3792 24.4094 22.2115 24.7229C22.0438 25.0365 21.7622 25.2663 21.4187 25.3706C21.0754 25.4745 20.7135 25.4395 20.4 25.2719L19.7153 24.9057C19.6815 24.8882 19.6458 24.8748 19.6089 24.8659L16.8454 23.382C16.6152 23.2576 16.3284 23.3446 16.205 23.5749C16.1756 23.6296 16.1573 23.6896 16.1511 23.7514C16.1449 23.8132 16.1509 23.8756 16.1688 23.935C16.1867 23.9945 16.2162 24.0498 16.2555 24.0979C16.2948 24.146 16.3432 24.1859 16.3979 24.2152L16.9787 24.5271C16.5844 24.3817 16.1525 24.3543 15.7204 24.4619C15.8425 23.5664 15.4078 22.6476 14.5656 22.1971C14.0482 21.9203 13.4527 21.8601 12.8875 22.0272C12.8832 21.8212 12.8507 21.6167 12.7908 21.4195C12.6181 20.8494 12.2352 20.3817 11.7129 20.1024C11.1879 19.8218 10.5998 19.7735 10.0676 19.9219C10.0585 19.1184 9.54847 18.4502 8.9411 18.0238C8.92015 18.0076 8.89791 17.9933 8.87458 17.9808C7.96779 17.496 6.87186 17.7056 6.20016 18.423C6.18929 17.9311 6.25656 17.4373 6.39321 16.9539L9.09265 8.58717C10.0052 8.69279 10.8495 8.52537 11.669 8.362C13.0316 8.09102 14.3256 7.83344 15.9978 8.74488C15.6335 9.03493 15.2671 9.36592 14.9028 9.7339C14.6144 10.0255 14.3179 10.3167 14.0286 10.6007C12.974 11.6365 12.0631 12.5312 11.8027 13.1661C11.7717 13.2415 11.7608 13.3237 11.771 13.4046C11.7811 13.4855 11.8121 13.5624 11.8607 13.6278C13.7432 16.1595 16.0246 15.3004 17.8569 14.6104C19.2307 14.0929 20.4171 13.6458 21.3623 14.3938C21.3801 14.4079 21.3989 14.4207 21.4186 14.4321C21.87 14.6936 22.4917 15.0006 23.2116 15.3562C24.9521 16.2159 27.3359 17.3932 27.9518 18.3295C28.3658 18.9582 28.2344 19.8285 27.8523 20.2472ZM28.6686 17.7106C27.8429 16.5908 25.5153 15.439 23.6307 14.5083C22.9413 14.1678 22.3438 13.8728 21.921 13.63C20.5634 12.5807 19.0184 13.1624 17.5238 13.7253C15.7523 14.392 14.2119 14.9719 12.8049 13.2979C13.1354 12.804 13.9246 12.0289 14.6915 11.2758C14.984 10.9885 15.2836 10.6941 15.5752 10.3994C16.0805 9.88908 16.5862 9.45978 17.0792 9.12051C19.4618 7.48207 21.2281 8.22029 22.7869 8.87264C23.5157 9.1778 24.2597 9.48924 24.9956 9.48924C25.2659 9.48924 25.5347 9.43989 25.8017 9.34015L28.8821 17.6338L28.6686 17.7106ZM33.605 17.7909L31.0385 18.744C30.6814 18.8758 30.2849 18.6941 30.1528 18.3382L26.3183 8.01364C26.2547 7.84246 26.2621 7.65571 26.3391 7.48754C26.4162 7.31945 26.5529 7.19182 26.7242 7.12818L29.2907 6.17504C29.3667 6.14671 29.4471 6.13217 29.5282 6.13211C29.6264 6.13211 29.7245 6.15351 29.817 6.19582C29.985 6.2728 30.1126 6.40965 30.1762 6.58103L34.0108 16.9053C34.1431 17.2614 33.961 17.6586 33.605 17.7909Z" fill="#E76769"/>
</svg>
