<svg width="35" height="35" viewBox="0 0 35 35" fill="none" xmlns="http://www.w3.org/2000/svg">
<path d="M5.61532 4.06665H5.09868C4.81332 4.06665 4.58203 4.29794 4.58203 4.5833C4.58203 4.86865 4.81332 5.1 5.09868 5.1H5.61532C5.90068 5.1 6.13197 4.86871 6.13197 4.58336C6.13197 4.298 5.90068 4.06665 5.61532 4.06665ZM8.19868 4.06665H7.68203C7.54501 4.06665 7.4136 4.12108 7.31671 4.21797C7.21982 4.31486 7.16538 4.44627 7.16538 4.5833C7.16538 4.72032 7.21982 4.85173 7.31671 4.94862C7.4136 5.04551 7.54501 5.09994 7.68203 5.09994H8.19868C8.48404 5.09994 8.71532 4.86865 8.71532 4.5833C8.71532 4.29794 8.48404 4.06665 8.19868 4.06665ZM10.782 4.06665H10.2654C9.98003 4.06665 9.74874 4.29794 9.74874 4.5833C9.74874 4.86865 9.98003 5.09994 10.2654 5.09994H10.782C10.9191 5.09994 11.0505 5.04551 11.1474 4.94862C11.2442 4.85173 11.2987 4.72032 11.2987 4.5833C11.2987 4.44627 11.2442 4.31486 11.1474 4.21797C11.0505 4.12108 10.9191 4.06665 10.782 4.06665ZM26.7987 4.06665H12.8487C12.5633 4.06665 12.332 4.29794 12.332 4.5833C12.332 4.86865 12.5633 5.09994 12.8487 5.09994H26.7987C27.084 5.09994 27.3153 4.86865 27.3153 4.5833C27.3153 4.29794 27.084 4.06665 26.7987 4.06665Z" fill="#E76769"/>
<path d="M31.9666 20.6H31.45V18.0166C31.4496 16.57 30.8949 15.1785 29.9 14.1282V4.58335C29.8983 3.15729 28.7427 2.0017 27.3166 2H4.58335C3.15729 2.0017 2.0017 3.15729 2 4.58335V25.25C2.0017 26.676 3.15729 27.8316 4.58335 27.8334H18.5334V29.3834C18.5357 31.3798 20.1535 32.9978 22.15 33H29.3834C31.3798 32.9977 32.9978 31.3798 33 29.3834V21.6334C33 21.0626 32.5374 20.6 31.9666 20.6ZM30.4166 18.0166V20.6H21.1166V18.0166C21.1166 15.4486 23.1985 13.3666 25.7666 13.3666C28.3347 13.3666 30.4166 15.4486 30.4166 18.0166ZM3.03335 4.58335C3.03335 3.72734 3.72734 3.03335 4.58335 3.03335H27.3167C28.1727 3.03335 28.8667 3.72734 28.8667 4.58335V6.13335H3.03335V4.58335ZM18.5334 21.6334V26.8H4.58335C3.72734 26.8 3.03335 26.106 3.03335 25.25V7.16665H28.8667V13.2592C27.1212 12.1174 24.8901 12.0249 23.0561 13.0183C21.2221 14.0117 20.0806 15.9309 20.0834 18.0166V20.6H19.5667C18.996 20.6 18.5334 21.0626 18.5334 21.6334ZM31.9666 22.6666H30.4166C30.1313 22.6666 29.9 22.8979 29.9 23.1833C29.9 23.4687 30.1313 23.6999 30.4166 23.6999H31.9666V24.7333H30.4166C30.1313 24.7333 29.9 24.9646 29.9 25.2499C29.9 25.5353 30.1313 25.7666 30.4166 25.7666H31.9666V26.8H30.4166C30.1313 26.8 29.9 27.0313 29.9 27.3166C29.9 27.602 30.1313 27.8333 30.4166 27.8333H31.9666V28.8666H30.4166C30.2796 28.8666 30.1482 28.9211 30.0513 29.018C29.9544 29.1149 29.9 29.2463 29.9 29.3833C29.9 29.5203 29.9544 29.6517 30.0513 29.7486C30.1482 29.8455 30.2796 29.8999 30.4166 29.8999H31.915C31.6678 31.1019 30.6105 31.9651 29.3834 31.9666H22.15C20.9229 31.965 19.8655 31.1019 19.6184 29.8999H21.1167C21.2537 29.8999 21.3851 29.8455 21.482 29.7486C21.5789 29.6517 21.6334 29.5203 21.6334 29.3833C21.6334 29.2463 21.5789 29.1149 21.482 29.018C21.3851 28.9211 21.2537 28.8666 21.1167 28.8666H19.5667V27.8333H21.1167C21.4021 27.8333 21.6334 27.602 21.6334 27.3166C21.6334 27.0313 21.4021 26.8 21.1167 26.8H19.5667V25.7666H21.1167C21.4021 25.7666 21.6334 25.5354 21.6334 25.25C21.6334 24.9646 21.4021 24.7334 21.1167 24.7334H19.5667V23.7H21.1167C21.4021 23.7 21.6334 23.4687 21.6334 23.1834C21.6334 22.898 21.4021 22.6667 21.1167 22.6667H19.5667V21.6334H31.9667L31.9666 22.6666Z" fill="#E76769"/>
<path d="M25.2516 27.2216V28.35C25.2516 28.4871 25.306 28.6185 25.4029 28.7154C25.4998 28.8123 25.6312 28.8667 25.7682 28.8667C25.9052 28.8667 26.0366 28.8123 26.1335 28.7154C26.2304 28.6185 26.2849 28.4871 26.2849 28.35V27.2216C26.9961 26.9711 27.4229 26.2442 27.2951 25.501C27.1674 24.7579 26.5223 24.2152 25.7682 24.2167C25.0142 24.2152 24.369 24.7579 24.2413 25.501C24.1135 26.2442 24.5403 26.9711 25.2516 27.2216ZM25.7682 25.25C25.9052 25.25 26.0366 25.3045 26.1335 25.4014C26.2304 25.4983 26.2849 25.6297 26.2849 25.7667C26.2849 25.9037 26.2304 26.0351 26.1335 26.132C26.0366 26.2289 25.9052 26.2833 25.7682 26.2833C25.6312 26.2833 25.4998 26.2289 25.4029 26.132C25.306 26.0351 25.2516 25.9037 25.2516 25.7667C25.2516 25.6297 25.306 25.4983 25.4029 25.4014C25.4998 25.3045 25.6312 25.25 25.7682 25.25ZM10.7849 12.3334C10.6479 12.3334 10.5165 12.3878 10.4196 12.4847C10.3227 12.5816 10.2683 12.713 10.2683 12.85V14.4H6.13492V10.2667H8.20156C8.48692 10.2667 8.71821 10.0354 8.71821 9.75004C8.71821 9.46469 8.48692 9.2334 8.20156 9.2334H6.13492C5.5642 9.2334 5.10156 9.69604 5.10156 10.2668V14.4C5.10156 14.9708 5.5642 15.4334 6.13492 15.4334H10.2683C10.839 15.4334 11.3016 14.9708 11.3016 14.4V12.85C11.3016 12.713 11.2471 12.5816 11.1502 12.4847C11.0533 12.3878 10.9219 12.3334 10.7849 12.3334Z" fill="#E76769"/>
<path d="M7.53349 11.4514C7.43605 11.3573 7.30554 11.3052 7.17007 11.3064C7.0346 11.3076 6.90502 11.3619 6.80923 11.4577C6.71343 11.5535 6.65909 11.6831 6.65791 11.8185C6.65674 11.954 6.70881 12.0845 6.80293 12.182L7.83628 13.2153C7.93316 13.3122 8.06455 13.3667 8.20156 13.3667H8.22481C8.29651 13.3635 8.36676 13.3454 8.43108 13.3135C8.4954 13.2817 8.55238 13.2368 8.59839 13.1817L11.1817 10.0817C11.2252 10.0296 11.258 9.96943 11.2783 9.90464C11.2985 9.83985 11.3058 9.77171 11.2997 9.70411C11.2936 9.6365 11.2743 9.57076 11.2428 9.51064C11.2113 9.45051 11.1682 9.39718 11.1161 9.35369C11.064 9.3102 11.0038 9.2774 10.939 9.25716C10.8743 9.23692 10.8061 9.22964 10.7385 9.23573C10.6709 9.24182 10.6052 9.26118 10.545 9.29268C10.4849 9.32418 10.4316 9.36721 10.3881 9.41932L8.16645 12.0853L7.53349 11.4514ZM10.7849 21.1167C10.6479 21.1167 10.5165 21.1711 10.4196 21.268C10.3227 21.3649 10.2683 21.4963 10.2683 21.6333V23.1833H6.13492V19.05H8.20156C8.33859 19.05 8.47 18.9956 8.56689 18.8987C8.66378 18.8018 8.71821 18.6704 8.71821 18.5334C8.71821 18.3964 8.66378 18.265 8.56689 18.1681C8.47 18.0712 8.33859 18.0167 8.20156 18.0167H6.13492C5.5642 18.0167 5.10156 18.4794 5.10156 19.0501V23.1834C5.10156 23.7542 5.5642 24.2168 6.13492 24.2168H10.2683C10.839 24.2168 11.3016 23.7542 11.3016 23.1834V21.6334C11.3016 21.4964 11.2472 21.365 11.1503 21.2681C11.0534 21.1712 10.922 21.1167 10.7849 21.1167Z" fill="#E76769"/>
<path d="M7.53184 20.2347C7.4344 20.1406 7.30389 20.0885 7.16842 20.0897C7.03296 20.0909 6.90337 20.1452 6.80758 20.241C6.71179 20.3368 6.65745 20.4664 6.65627 20.6019C6.65509 20.7373 6.70717 20.8678 6.80129 20.9653L7.83464 21.9986C7.93151 22.0955 8.0629 22.15 8.19992 22.15H8.22317C8.29487 22.1468 8.36512 22.1287 8.42943 22.0969C8.49375 22.065 8.55073 22.0201 8.59674 21.965L11.1801 18.865C11.2383 18.7954 11.277 18.7116 11.2926 18.6223C11.3081 18.5329 11.2998 18.441 11.2686 18.3558C11.2373 18.2706 11.1842 18.1951 11.1145 18.137C11.0448 18.0789 10.9611 18.0401 10.8717 18.0246C10.7823 18.0091 10.6904 18.0174 10.6052 18.0486C10.52 18.0799 10.4446 18.133 10.3864 18.2027L8.1648 20.8687L7.53184 20.2347ZM13.3666 10.7834H17.4999C17.7853 10.7834 18.0166 10.5521 18.0166 10.2667C18.0166 9.98135 17.7853 9.75 17.4999 9.75H13.3666C13.2305 9.75147 13.1005 9.80656 13.0048 9.90329C12.9091 10 12.8555 10.1306 12.8555 10.2667C12.8555 10.4027 12.9091 10.5333 13.0048 10.6301C13.1005 10.7268 13.2305 10.7819 13.3666 10.7834ZM20.5999 12.85C20.5999 12.713 20.5455 12.5816 20.4486 12.4847C20.3517 12.3878 20.2203 12.3334 20.0833 12.3334H13.3666C13.0812 12.3334 12.8499 12.5646 12.8499 12.85C12.8499 13.1354 13.0812 13.3666 13.3666 13.3666H20.0832C20.1511 13.3667 20.2183 13.3533 20.2809 13.3273C20.3436 13.3014 20.4006 13.2633 20.4486 13.2153C20.4966 13.1674 20.5346 13.1104 20.5606 13.0477C20.5866 12.985 20.5999 12.9179 20.5999 12.85ZM17.4999 18.5334H13.3666C13.2295 18.5334 13.0981 18.5878 13.0012 18.6847C12.9044 18.7816 12.8499 18.913 12.8499 19.05C12.8499 19.187 12.9044 19.3184 13.0012 19.4153C13.0981 19.5122 13.2295 19.5666 13.3666 19.5666H17.4999C17.7853 19.5666 18.0166 19.3354 18.0166 19.05C18.0166 18.7646 17.7853 18.5334 17.4999 18.5334ZM16.9833 21.1166H13.3666C13.0813 21.1166 12.85 21.3479 12.85 21.6333C12.85 21.9186 13.0813 22.1499 13.3666 22.1499H16.9833C17.2686 22.1499 17.4999 21.9186 17.4999 21.6333C17.4999 21.3479 17.2686 21.1166 16.9833 21.1166Z" fill="#E76769"/>
</svg>
