<svg width="35" height="35" viewBox="0 0 35 35" fill="none" xmlns="http://www.w3.org/2000/svg">
<path d="M22.2852 14.78H23.7259" stroke="#E76769" stroke-miterlimit="10" stroke-linecap="round" stroke-linejoin="round"/>
<mask id="mask0_26_846" style="mask-type:luminance" maskUnits="userSpaceOnUse" x="2" y="2" width="31" height="32">
<path d="M32.5001 32.5002V2.5001H2.5V32.5002H32.5001Z" fill="white" stroke="white"/>
</mask>
<g mask="url(#mask0_26_846)">
<path d="M27.1622 5.96691C24.5481 3.77444 21.1778 2.45421 17.4991 2.45421C9.18942 2.45421 2.45312 9.1905 2.45312 17.5002C2.45312 21.1771 3.77202 24.5459 5.96256 27.1594M7.441 28.6903C10.1062 31.0874 13.6323 32.5461 17.4991 32.5461C25.8088 32.5461 32.5451 25.8098 32.5451 17.5002C32.5451 13.6334 31.0864 10.1072 28.6893 7.44208M27.3383 25.8052L9.19402 7.66096C11.4361 5.7665 14.3339 4.62385 17.4991 4.62385C24.6105 4.62385 30.3755 10.3887 30.3755 17.5002C30.3755 20.6653 29.2328 23.5631 27.3383 25.8052ZM4.62277 17.5002C4.62277 14.335 5.76548 11.4372 7.65988 9.1951L25.8042 27.3394C23.562 29.2338 20.6643 30.3766 17.4991 30.3766C10.3876 30.3766 4.62277 24.6116 4.62277 17.5002Z" stroke="#E76769" stroke-miterlimit="10" stroke-linecap="round" stroke-linejoin="round"/>
<path d="M9.11328 17.6053V22.591C9.11328 23.5241 9.8697 24.2805 10.8028 24.2805H22.7452" stroke="#E76769" stroke-miterlimit="10" stroke-linecap="round" stroke-linejoin="round"/>
<path d="M11.1328 12.6679H10.8028C9.8697 12.6679 9.11328 13.4244 9.11328 14.3575V15.4822" stroke="#E76769" stroke-miterlimit="10" stroke-linecap="round" stroke-linejoin="round"/>
<path d="M25.3538 23.8203C25.6808 23.5122 25.8852 23.0755 25.8852 22.5908V14.3574C25.8852 13.4244 25.1288 12.668 24.1957 12.668H21.898C21.5932 12.668 21.2958 12.5746 21.0457 12.4004C20.7956 12.2263 20.6049 11.9797 20.4992 11.6938C20.3935 11.408 20.2028 11.1614 19.9527 10.9872C19.7026 10.8131 19.4052 10.7197 19.1004 10.7197H15.8984C15.5936 10.7197 15.2962 10.8131 15.0461 10.9872C14.796 11.1614 14.6053 11.408 14.4996 11.6938C14.3922 11.9841 14.1971 12.2336 13.9414 12.4079" stroke="#E76769" stroke-miterlimit="10" stroke-linecap="round" stroke-linejoin="round"/>
<path d="M14.7491 16.2843C14.2922 16.8731 14.0195 17.6119 14.0195 18.4149C14.0195 20.3367 15.5774 21.8945 17.4991 21.8945C18.3021 21.8945 19.0409 21.6218 19.6298 21.1649" stroke="#E76769" stroke-miterlimit="10" stroke-linecap="round" stroke-linejoin="round"/>
<path d="M20.8584 19.3247C20.9387 19.0281 20.9793 18.7222 20.9793 18.4149C20.9793 16.4931 19.4215 14.9352 17.4997 14.9352C17.1924 14.9352 16.8865 14.9759 16.5898 15.0562" stroke="#E76769" stroke-miterlimit="10" stroke-linecap="round" stroke-linejoin="round"/>
</g>
</svg>
