<svg width="53" height="33" viewBox="0 0 53 33" fill="none" xmlns="http://www.w3.org/2000/svg">
<path d="M33.4994 3.48584H19.2383V29.1205H33.4994V3.48584Z" fill="#7375CF"/>
<path d="M20.1454 16.3029C20.1431 13.8341 20.7024 11.3971 21.7809 9.17651C22.8594 6.95588 24.4289 5.0098 26.3704 3.48557C23.9661 1.59517 21.0785 0.419564 18.0378 0.0931104C14.997 -0.233343 11.9258 0.30252 9.17519 1.63947C6.42454 2.97643 4.10542 5.06053 2.48292 7.65354C0.860425 10.2466 0 13.2439 0 16.3029C0 19.3619 0.860425 22.3593 2.48292 24.9523C4.10542 27.5453 6.42454 29.6294 9.17519 30.9663C11.9258 32.3033 14.997 32.8392 18.0378 32.5127C21.0785 32.1862 23.9661 31.0106 26.3704 29.1202C24.4289 27.596 22.8594 25.6499 21.7809 23.4293C20.7024 21.2087 20.1431 18.7717 20.1454 16.3029Z" fill="#EB001B"/>
<path d="M51.1866 26.405V25.8802H51.3982V25.7733H50.8594V25.8802H51.071V26.405H51.1866ZM52.2327 26.405V25.7722H52.0675L51.8775 26.2075L51.6875 25.7722H51.5223V26.405H51.6389V25.9277L51.817 26.3392H51.938L52.1161 25.9266V26.405H52.2327Z" fill="#00A2E5"/>
<path d="M52.7407 16.3029C52.7408 19.3619 51.8805 22.3592 50.2581 24.9522C48.6357 27.5452 46.3166 29.6293 43.566 30.9663C40.8154 32.3033 37.7443 32.8391 34.7036 32.5127C31.6629 32.1862 28.7754 31.0106 26.3711 29.1202C28.311 27.5945 29.8792 25.6481 30.9575 23.4278C32.0358 21.2075 32.5961 18.7713 32.5961 16.3029C32.5961 13.8345 32.0358 11.3983 30.9575 9.17801C29.8792 6.95773 28.311 5.01133 26.3711 3.48556C28.7754 1.59516 31.6629 0.419555 34.7036 0.0931061C37.7443 -0.233343 40.8154 0.302543 43.566 1.63951C46.3166 2.97648 48.6357 5.06058 50.2581 7.65359C51.8805 10.2466 52.7408 13.2439 52.7407 16.3029Z" fill="#00A2E5"/>
</svg>
