<svg width="52" height="34" viewBox="0 0 52 34" fill="none" xmlns="http://www.w3.org/2000/svg">
<path d="M32.6425 3.5498H18.7422V29.7192H32.6425V3.5498Z" fill="#FF5F00"/>
<path d="M19.6357 16.6429C19.6335 14.1226 20.1786 11.6348 21.2298 9.3679C22.2811 7.10096 23.8108 5.11428 25.7032 3.55827C23.3597 1.62844 20.5452 0.428314 17.5814 0.0950524C14.6176 -0.23821 11.6241 0.308829 8.94305 1.67367C6.26199 3.03851 4.00155 5.16607 2.4201 7.81317C0.838656 10.4603 0 13.5201 0 16.6429C0 19.7658 0.838656 22.8256 2.4201 25.4727C4.00155 28.1198 6.26199 30.2474 8.94305 31.6122C11.6241 32.977 14.6176 33.5241 17.5814 33.1908C20.5452 32.8575 23.3597 31.6574 25.7032 29.7276C23.8108 28.1716 22.2811 26.1849 21.2299 23.9179C20.1787 21.651 19.6335 19.1632 19.6357 16.6429Z" fill="#EB001B"/>
<path d="M51.3978 16.6429C51.3979 19.7657 50.5593 22.8255 48.978 25.4726C47.3966 28.1197 45.1362 30.2473 42.4552 31.6122C39.7742 32.977 36.7807 33.5241 33.817 33.1908C30.8532 32.8576 28.0388 31.6574 25.6953 29.7276C27.5861 28.17 29.1146 26.183 30.1657 23.9164C31.2167 21.6498 31.7628 19.1628 31.7628 16.6429C31.7628 14.123 31.2167 11.636 30.1657 9.36945C29.1146 7.10286 27.5861 5.11586 25.6953 3.55828C28.0388 1.62845 30.8532 0.428307 33.817 0.0950483C36.7807 -0.23821 39.7742 0.308853 42.4552 1.67371C45.1362 3.03856 47.3966 5.16614 48.978 7.81324C50.5593 10.4603 51.3979 13.5202 51.3978 16.6429Z" fill="#F79E1B"/>
<path d="M49.8932 26.9499V26.4142H50.0994V26.305H49.5742V26.4142H49.7805V26.9499H49.8932ZM50.9128 26.9499V26.304H50.7518L50.5666 26.7483L50.3814 26.304H50.2203V26.9499H50.334V26.4627L50.5077 26.8828H50.6255L50.7992 26.4616V26.9499H50.9128Z" fill="#F79E1B"/>
</svg>
