<svg width="66" height="20" viewBox="0 0 66 20" fill="none" xmlns="http://www.w3.org/2000/svg">
<path fill-rule="evenodd" clip-rule="evenodd" d="M10.4841 2.16948C11.003 2.16634 12.5451 2.02605 13.1983 4.25286C13.6383 5.75286 14.3392 8.20993 15.301 11.6241H15.6927C16.7241 8.02464 17.4326 5.56757 17.8183 4.25286C18.4783 2.00286 20.1283 2.16952 20.7883 2.16952L25.8803 2.16953V18.1695H20.6904V8.74045H20.3424L17.4492 18.1695H13.5444L10.6513 8.73346H10.3032V18.1695H5.11328V2.16953L10.4841 2.16948ZM33.333 2.16953V11.6056H33.747L37.2663 3.84638C37.9494 2.30228 39.4055 2.16953 39.4055 2.16953H44.4278V18.1695H39.1294V8.73346H38.7154L35.2652 16.4927C34.582 18.0298 33.057 18.1695 33.057 18.1695H28.0347V2.16953H33.333ZM62.7413 9.77283C62.0022 11.8883 59.6812 13.4034 57.1116 13.4034H51.5553V18.1695H46.5168V9.77283H62.7413Z" fill="#0F754E"/>
<path fill-rule="evenodd" clip-rule="evenodd" d="M57.3559 2.16943H46.2539C46.5181 5.73158 49.5551 8.781 52.6989 8.781H63.0927C63.6924 5.82044 61.6276 2.16943 57.3559 2.16943Z" fill="url(#paint0_linear_26_798)"/>
<defs>
<linearGradient id="paint0_linear_26_798" x1="63.1946" y1="6.3284" x2="46.2539" y2="6.3284" gradientUnits="userSpaceOnUse">
<stop stop-color="#1F5CD7"/>
<stop offset="1" stop-color="#02AEFF"/>
</linearGradient>
</defs>
</svg>
