<svg width="38" height="40" viewBox="0 0 38 40" fill="none" xmlns="http://www.w3.org/2000/svg">
<path d="M30.9935 26.3342C31.1019 27.0928 30.849 27.4179 30.6323 27.4179C30.3794 27.4179 30.0543 27.0928 29.657 26.5148C29.2596 25.9007 29.1151 25.2143 29.3318 24.8892C29.4402 24.6725 29.7292 24.5641 30.0543 24.6725C30.6684 24.8892 30.9213 25.8646 30.9935 26.3342ZM27.4173 27.9597C28.1759 28.61 28.4288 29.4047 28.0314 29.9465C27.8147 30.2355 27.4534 30.4162 26.9838 30.4162C26.5504 30.4162 26.1169 30.2717 25.7918 29.9827C25.1055 29.3686 24.8887 28.3571 25.3583 27.8152C25.5389 27.5985 25.8279 27.4901 26.1891 27.4901C26.5865 27.4901 27.02 27.6707 27.4173 27.9597ZM26.1169 34.2814C29.4402 34.2814 33.0525 35.4373 37.0622 38.9775C37.4595 39.3387 38.0013 38.9052 37.6401 38.4356C33.7027 33.4867 30.0904 32.5474 26.4781 31.7527C22.035 30.7774 19.7593 28.2849 18.1698 25.5395C17.8447 24.9976 17.7003 25.106 17.7003 25.7923C17.6641 26.6593 17.7364 27.7791 17.917 28.899C17.7364 28.899 17.5558 28.899 17.3751 28.899C11.0536 28.899 5.88804 23.7694 5.88804 17.4116C5.88804 11.09 11.0175 5.92428 17.3751 5.92428C23.7328 5.92428 28.8622 11.0539 28.8622 17.4116C28.8622 17.8451 28.8261 18.3147 28.79 18.7482C27.9592 18.6037 26.2975 18.5676 25.1416 18.676C24.7081 18.7121 24.7804 18.9288 25.1055 18.9649C28.8984 19.6513 31.4992 21.9993 32.1133 26.2619C32.1133 26.3703 32.2578 26.4064 32.2939 26.298C33.8472 23.6971 34.7503 20.6628 34.7503 17.3755C34.7503 7.80272 26.9839 0 17.3751 0C7.76644 0 0 7.7666 0 17.3755C0 26.9483 7.76644 34.751 17.3751 34.751C19.9038 34.7871 22.4324 34.2814 26.1169 34.2814Z" fill="#FF8C00"/>
</svg>
