<svg width="56" height="19" viewBox="0 0 56 19" fill="none" xmlns="http://www.w3.org/2000/svg">
<path d="M24.2972 17.8277H19.7695L22.6014 0.317383H27.1288L24.2972 17.8277Z" fill="#00579F"/>
<path d="M40.7105 0.745485C39.8175 0.391188 38.401 0 36.6496 0C32.1784 0 29.0299 2.38426 29.0106 5.79304C28.9734 8.30803 31.2648 9.70492 32.9786 10.5435C34.7303 11.4004 35.3258 11.9597 35.3258 12.7235C35.3079 13.8966 33.9103 14.4373 32.6068 14.4373C30.7991 14.4373 29.8306 14.1585 28.3587 13.5059L27.7625 13.2261L27.1289 17.1568C28.1908 17.6406 30.1472 18.0699 32.1784 18.0887C36.9291 18.0887 40.022 15.7413 40.0586 12.1087C40.0767 10.1154 38.8668 8.58805 36.2582 7.33997C34.6746 6.53877 33.7048 5.99854 33.7048 5.17878C33.7234 4.43354 34.5251 3.67023 36.3127 3.67023C37.7846 3.63284 38.866 3.98665 39.6853 4.3407L40.0948 4.52663L40.7105 0.745485Z" fill="#00579F"/>
<path d="M46.7276 11.6244C47.1005 10.6185 48.5353 6.72518 48.5353 6.72518C48.5165 6.76257 48.9074 5.70067 49.131 5.04877L49.4474 6.55757C49.4474 6.55757 50.3048 10.749 50.491 11.6244C49.7834 11.6244 47.6219 11.6244 46.7276 11.6244ZM52.3164 0.317383H48.8143C47.7343 0.317383 46.9138 0.633799 46.4479 1.77022L39.7227 17.8275H44.4734C44.4734 17.8275 45.2555 15.6663 45.4236 15.2008C45.9448 15.2008 50.5662 15.2008 51.2367 15.2008C51.3667 15.8156 51.7769 17.8275 51.7769 17.8275H55.9691L52.3164 0.317383Z" fill="#00579F"/>
<path d="M15.9869 0.317383L11.5529 12.2578L11.0683 9.83611C10.2486 7.04185 7.67763 4.00593 4.80859 2.4964L8.87001 17.8092H13.6579L20.7745 0.317383H15.9869Z" fill="#00579F"/>
<path d="M7.43715 0.317383H0.152648L0.078125 0.671184C5.76049 2.12427 9.52382 5.62689 11.07 9.83685L9.48643 1.78929C9.22572 0.670937 8.42453 0.354273 7.43715 0.317383Z" fill="#00579F"/>
</svg>
