<svg width="41" height="30" viewBox="0 0 41 30" fill="none" xmlns="http://www.w3.org/2000/svg">
<path d="M26.0464 0.609375C18.0599 0.609375 11.707 7.0528 11.707 14.9482C11.707 22.9344 18.1507 29.2871 26.0464 29.2871C33.9421 29.2871 40.3858 22.8437 40.3858 14.9482C40.4765 7.0528 33.9421 0.609375 26.0464 0.609375ZM26.0464 20.3026C23.1422 20.3026 20.6918 17.8523 20.6918 14.9482C20.6918 12.0442 23.1422 9.59388 26.0464 9.59388C28.9506 9.59388 31.401 12.0442 31.401 14.9482C31.401 17.8523 29.0413 20.3026 26.0464 20.3026Z" fill="#8B3FFD"/>
<path d="M11.7075 4.78394V25.657H6.5344L0 4.78394H11.7075Z" fill="#8B3FFD"/>
</svg>
