<svg width="25" height="25" viewBox="0 0 25 25" fill="none" xmlns="http://www.w3.org/2000/svg">
<path d="M20.2714 20.5602H13.2351M4 21L8.88076 19.1228C9.19294 19.0027 9.34903 18.9427 9.49507 18.8643C9.62479 18.7947 9.74845 18.7143 9.86476 18.624C9.9957 18.5224 10.114 18.4042 10.3505 18.1677L20.2714 8.24676C21.2429 7.27526 21.2429 5.70014 20.2714 4.72863C19.2999 3.75712 17.7247 3.75712 16.7532 4.72863L6.83234 14.6495C6.59583 14.886 6.47758 15.0043 6.37596 15.1352C6.28571 15.2515 6.20534 15.3752 6.13571 15.5049C6.05732 15.651 5.99729 15.8071 5.87721 16.1192L4 21ZM4 21L5.81018 16.2936C5.93972 15.9568 6.00449 15.7884 6.11557 15.7113C6.21266 15.6439 6.33279 15.6184 6.44888 15.6405C6.58172 15.6659 6.7093 15.7935 6.96445 16.0486L8.95139 18.0356C9.20654 18.2907 9.33412 18.4183 9.35949 18.5511C9.38166 18.6672 9.35616 18.7874 9.28876 18.8844C9.21162 18.9955 9.04323 19.0603 8.70644 19.1898L4 21Z" stroke="#959DA2" stroke-width="2" stroke-linecap="round" stroke-linejoin="round"/>
</svg>
