<svg width="50" height="34" viewBox="0 0 50 34" fill="none" xmlns="http://www.w3.org/2000/svg">
<path d="M22.7979 14.0107V19.9854C22.7979 22.3363 22.5208 24.3802 21.9668 26.1172C21.4277 27.8542 20.6491 29.2917 19.6309 30.4297C18.6276 31.5677 17.4297 32.4137 16.0371 32.9678C14.6445 33.5218 13.1097 33.7988 11.4326 33.7988C10.085 33.7988 8.82715 33.6266 7.65918 33.2822C6.49121 32.9229 5.43555 32.3838 4.49219 31.665C3.5638 30.9313 2.7627 30.0179 2.08887 28.9248C1.41504 27.8317 0.898438 26.5439 0.539062 25.0615C0.179688 23.5641 0 21.8721 0 19.9854V14.0107C0 11.6449 0.269531 9.60091 0.808594 7.87891C1.36263 6.14193 2.14876 4.70443 3.16699 3.56641C4.18522 2.42839 5.39062 1.58236 6.7832 1.02832C8.17578 0.474284 9.71061 0.197266 11.3877 0.197266C12.7354 0.197266 13.9857 0.376953 15.1387 0.736328C16.3066 1.08073 17.3623 1.61979 18.3057 2.35352C19.249 3.07227 20.0501 3.97819 20.709 5.07129C21.3828 6.16439 21.8994 7.45964 22.2588 8.95703C22.6182 10.4395 22.7979 12.124 22.7979 14.0107ZM15.2285 20.9062V13.0449C15.2285 11.9967 15.1686 11.0833 15.0488 10.3047C14.944 9.52604 14.7793 8.86719 14.5547 8.32812C14.3451 7.78906 14.083 7.35482 13.7686 7.02539C13.4541 6.68099 13.0947 6.43392 12.6904 6.28418C12.3011 6.11947 11.8669 6.03711 11.3877 6.03711C10.7887 6.03711 10.2497 6.16439 9.77051 6.41895C9.30632 6.65853 8.90951 7.04785 8.58008 7.58691C8.25065 8.12598 7.99609 8.84473 7.81641 9.74316C7.65169 10.6416 7.56934 11.7422 7.56934 13.0449V20.9062C7.56934 21.9694 7.62174 22.8978 7.72656 23.6914C7.84635 24.4701 8.01107 25.1364 8.2207 25.6904C8.44531 26.2295 8.71484 26.6712 9.0293 27.0156C9.34375 27.3451 9.70312 27.5846 10.1074 27.7344C10.5117 27.8841 10.9535 27.959 11.4326 27.959C12.0166 27.959 12.5407 27.8392 13.0049 27.5996C13.4691 27.36 13.8659 26.9707 14.1953 26.4316C14.5397 25.8776 14.7943 25.1514 14.959 24.2529C15.1387 23.3395 15.2285 22.224 15.2285 20.9062Z" fill="#DEE3E6"/>
<path d="M33.6689 13.8311H37.3525C38.2959 13.8311 39.0671 13.6663 39.666 13.3369C40.2799 12.9925 40.7367 12.5133 41.0361 11.8994C41.3356 11.2705 41.4854 10.5293 41.4854 9.67578C41.4854 9.01693 41.3431 8.41048 41.0586 7.85645C40.7891 7.30241 40.3698 6.86068 39.8008 6.53125C39.2318 6.18685 38.5055 6.01465 37.6221 6.01465C37.0231 6.01465 36.4391 6.14193 35.8701 6.39648C35.3011 6.63607 34.8294 6.98047 34.4551 7.42969C34.0957 7.87891 33.916 8.42546 33.916 9.06934H26.3242C26.3242 7.21257 26.8333 5.62533 27.8516 4.30762C28.8848 2.97493 30.2399 1.95671 31.917 1.25293C33.609 0.53418 35.4284 0.174805 37.375 0.174805C39.696 0.174805 41.7324 0.53418 43.4844 1.25293C45.2363 1.95671 46.599 3.00488 47.5723 4.39746C48.5605 5.77507 49.0547 7.4821 49.0547 9.51855C49.0547 10.6416 48.7926 11.6973 48.2686 12.6855C47.7445 13.6738 47.0107 14.5423 46.0674 15.291C45.124 16.0397 44.016 16.6312 42.7432 17.0654C41.4854 17.4847 40.1077 17.6943 38.6104 17.6943H33.6689V13.8311ZM33.6689 19.4688V15.6953H38.6104C40.2425 15.6953 41.7324 15.8825 43.0801 16.2568C44.4277 16.6162 45.5882 17.1553 46.5615 17.874C47.5348 18.5928 48.2835 19.4837 48.8076 20.5469C49.3317 21.5951 49.5938 22.8005 49.5938 24.1631C49.5938 25.6904 49.2868 27.0531 48.6729 28.251C48.0589 29.4489 47.1979 30.4596 46.0898 31.2832C44.9818 32.1068 43.6865 32.7357 42.2041 33.1699C40.7217 33.5892 39.112 33.7988 37.375 33.7988C36.0124 33.7988 34.6497 33.6191 33.2871 33.2598C31.9245 32.8854 30.6816 32.3164 29.5586 31.5527C28.4355 30.7741 27.5296 29.7858 26.8408 28.5879C26.167 27.375 25.8301 25.93 25.8301 24.2529H33.4219C33.4219 24.9417 33.609 25.5706 33.9834 26.1396C34.3727 26.6937 34.8893 27.1354 35.5332 27.4648C36.1771 27.7943 36.8734 27.959 37.6221 27.959C38.5505 27.959 39.3366 27.7868 39.9805 27.4424C40.6393 27.083 41.141 26.6038 41.4854 26.0049C41.8298 25.4059 42.002 24.7396 42.002 24.0059C42.002 22.8978 41.8148 22.0143 41.4404 21.3555C41.0811 20.6966 40.5495 20.2174 39.8457 19.918C39.1569 19.6185 38.3258 19.4688 37.3525 19.4688H33.6689Z" fill="#DEE3E6"/>
</svg>
