<svg width="50" height="34" viewBox="0 0 50 34" fill="none" xmlns="http://www.w3.org/2000/svg">
<path d="M22.7979 13.8359V19.8105C22.7979 22.1615 22.5208 24.2054 21.9668 25.9424C21.4277 27.6794 20.6491 29.1169 19.6309 30.2549C18.6276 31.3929 17.4297 32.2389 16.0371 32.793C14.6445 33.347 13.1097 33.624 11.4326 33.624C10.085 33.624 8.82715 33.4518 7.65918 33.1074C6.49121 32.748 5.43555 32.209 4.49219 31.4902C3.5638 30.7565 2.7627 29.8431 2.08887 28.75C1.41504 27.6569 0.898438 26.3691 0.539062 24.8867C0.179688 23.3893 0 21.6973 0 19.8105V13.8359C0 11.4701 0.269531 9.42611 0.808594 7.7041C1.36263 5.96712 2.14876 4.52962 3.16699 3.3916C4.18522 2.25358 5.39062 1.40755 6.7832 0.853516C8.17578 0.299479 9.71061 0.0224609 11.3877 0.0224609C12.7354 0.0224609 13.9857 0.202148 15.1387 0.561523C16.3066 0.905924 17.3623 1.44499 18.3057 2.17871C19.249 2.89746 20.0501 3.80339 20.709 4.89648C21.3828 5.98958 21.8994 7.28483 22.2588 8.78223C22.6182 10.2646 22.7979 11.9492 22.7979 13.8359ZM15.2285 20.7314V12.8701C15.2285 11.8219 15.1686 10.9085 15.0488 10.1299C14.944 9.35124 14.7793 8.69238 14.5547 8.15332C14.3451 7.61426 14.083 7.18001 13.7686 6.85059C13.4541 6.50618 13.0947 6.25911 12.6904 6.10938C12.3011 5.94466 11.8669 5.8623 11.3877 5.8623C10.7887 5.8623 10.2497 5.98958 9.77051 6.24414C9.30632 6.48372 8.90951 6.87305 8.58008 7.41211C8.25065 7.95117 7.99609 8.66992 7.81641 9.56836C7.65169 10.4668 7.56934 11.5674 7.56934 12.8701V20.7314C7.56934 21.7946 7.62174 22.723 7.72656 23.5166C7.84635 24.2952 8.01107 24.9616 8.2207 25.5156C8.44531 26.0547 8.71484 26.4964 9.0293 26.8408C9.34375 27.1702 9.70312 27.4098 10.1074 27.5596C10.5117 27.7093 10.9535 27.7842 11.4326 27.7842C12.0166 27.7842 12.5407 27.6644 13.0049 27.4248C13.4691 27.1852 13.8659 26.7959 14.1953 26.2568C14.5397 25.7028 14.7943 24.9766 14.959 24.0781C15.1387 23.1647 15.2285 22.0492 15.2285 20.7314Z" fill="#DEE3E6"/>
<path d="M49.5938 27.335V33.1748H26.7734V28.2334L37.2852 17.1826C38.2135 16.1195 38.9622 15.1686 39.5312 14.3301C40.1003 13.4766 40.512 12.7054 40.7666 12.0166C41.0361 11.3278 41.1709 10.7064 41.1709 10.1523C41.1709 9.20898 41.0286 8.42285 40.7441 7.79395C40.4746 7.15007 40.0703 6.66341 39.5312 6.33398C39.0072 6.00456 38.3558 5.83984 37.5771 5.83984C36.7985 5.83984 36.1172 6.06445 35.5332 6.51367C34.9492 6.96289 34.4925 7.57682 34.1631 8.35547C33.8486 9.13411 33.6914 10.0101 33.6914 10.9834H26.0996C26.0996 8.97689 26.5863 7.14258 27.5596 5.48047C28.5479 3.81836 29.918 2.49316 31.6699 1.50488C33.4219 0.501628 35.4508 0 37.7568 0C40.1676 0 42.1891 0.374349 43.8213 1.12305C45.4535 1.87174 46.6813 2.95736 47.5049 4.37988C48.3434 5.78743 48.7627 7.48698 48.7627 9.47852C48.7627 10.6165 48.583 11.7096 48.2236 12.7578C47.8643 13.806 47.3477 14.8467 46.6738 15.8799C46 16.8981 45.1764 17.9463 44.2031 19.0244C43.2448 20.1025 42.1517 21.248 40.9238 22.4609L36.7012 27.335H49.5938Z" fill="#DEE3E6"/>
</svg>
