<svg width="44" height="35" viewBox="0 0 44 35" fill="none" xmlns="http://www.w3.org/2000/svg">
<path d="M22.7979 14.6611V20.6357C22.7979 22.9867 22.5208 25.0306 21.9668 26.7676C21.4277 28.5046 20.6491 29.9421 19.6309 31.0801C18.6276 32.2181 17.4297 33.0641 16.0371 33.6182C14.6445 34.1722 13.1097 34.4492 11.4326 34.4492C10.085 34.4492 8.82715 34.277 7.65918 33.9326C6.49121 33.5732 5.43555 33.0342 4.49219 32.3154C3.5638 31.5817 2.7627 30.6683 2.08887 29.5752C1.41504 28.4821 0.898438 27.1943 0.539062 25.7119C0.179688 24.2145 0 22.5225 0 20.6357V14.6611C0 12.2952 0.269531 10.2513 0.808594 8.5293C1.36263 6.79232 2.14876 5.35482 3.16699 4.2168C4.18522 3.07878 5.39062 2.23275 6.7832 1.67871C8.17578 1.12467 9.71061 0.847656 11.3877 0.847656C12.7354 0.847656 13.9857 1.02734 15.1387 1.38672C16.3066 1.73112 17.3623 2.27018 18.3057 3.00391C19.249 3.72266 20.0501 4.62858 20.709 5.72168C21.3828 6.81478 21.8994 8.11003 22.2588 9.60742C22.6182 11.0898 22.7979 12.7744 22.7979 14.6611ZM15.2285 21.5566V13.6953C15.2285 12.6471 15.1686 11.7337 15.0488 10.9551C14.944 10.1764 14.7793 9.51758 14.5547 8.97852C14.3451 8.43945 14.083 8.00521 13.7686 7.67578C13.4541 7.33138 13.0947 7.08431 12.6904 6.93457C12.3011 6.76986 11.8669 6.6875 11.3877 6.6875C10.7887 6.6875 10.2497 6.81478 9.77051 7.06934C9.30632 7.30892 8.90951 7.69824 8.58008 8.2373C8.25065 8.77637 7.99609 9.49512 7.81641 10.3936C7.65169 11.292 7.56934 12.3926 7.56934 13.6953V21.5566C7.56934 22.6198 7.62174 23.5482 7.72656 24.3418C7.84635 25.1204 8.01107 25.7868 8.2207 26.3408C8.44531 26.8799 8.71484 27.3216 9.0293 27.666C9.34375 27.9954 9.70312 28.235 10.1074 28.3848C10.5117 28.5345 10.9535 28.6094 11.4326 28.6094C12.0166 28.6094 12.5407 28.4896 13.0049 28.25C13.4691 28.0104 13.8659 27.6211 14.1953 27.082C14.5397 26.528 14.7943 25.8018 14.959 24.9033C15.1387 23.9899 15.2285 22.8743 15.2285 21.5566Z" fill="#DEE3E6"/>
<path d="M43.5293 1.29688V34H35.96V9.83203L28.5029 12.0107V6.26074L42.833 1.29688H43.5293Z" fill="#DEE3E6"/>
</svg>
