<svg width="68" height="68" viewBox="0 0 68 68" fill="none" xmlns="http://www.w3.org/2000/svg">
<circle cx="34" cy="34" r="34" fill="white"/>
<g clip-path="url(#clip0_26_869)">
<path d="M37.7562 14H52.1137C53.1946 14 54.0002 14.9653 54.0002 16.0194V25.0628C54.0002 26.1169 53.1946 27.0822 52.1137 27.0822H37.7562C36.6668 27.0822 35.8693 26.1169 35.8693 25.0628V23.4244L32.8137 21.8653C31.8746 21.3869 31.8746 19.9787 32.8137 19.5003C33.8324 18.9778 34.8509 18.4641 35.8693 17.9413V16.0194C35.869 14.9653 36.6665 14 37.7562 14ZM52.1137 15.2487H37.7562C37.3577 15.2487 37.1184 15.6562 37.1184 16.0194V18.3225C37.1184 18.5437 36.9946 18.7653 36.773 18.8716C35.639 19.4562 34.5143 20.0409 33.3805 20.6166C33.3187 20.6519 33.3362 20.7316 33.3805 20.7494L36.7202 22.4678C36.8371 22.5122 36.9377 22.591 37.0089 22.6937C37.08 22.7965 37.1183 22.9184 37.1187 23.0434V25.0628C37.1187 25.4259 37.358 25.8334 37.7565 25.8334H52.114C52.5124 25.8334 52.7518 25.4259 52.7518 25.0628V16.0194C52.7515 15.6562 52.5121 15.2487 52.1137 15.2487Z" fill="#2C2E40"/>
<path d="M40.3866 18.4019C39.5625 18.4019 39.5625 17.1531 40.3866 17.1531H49.7575C50.5725 17.1531 50.5725 18.4019 49.7575 18.4019H40.3866ZM40.3866 23.9378C39.5625 23.9378 39.5625 22.6888 40.3866 22.6888H45.9491C46.7728 22.6888 46.7728 23.9378 45.9491 23.9378H40.3866ZM40.3866 21.1656C39.5625 21.1656 39.5625 19.9166 40.3866 19.9166H49.7575C50.5725 19.9166 50.5725 21.1656 49.7575 21.1656H40.3866ZM22.0425 25.8244C21.8707 25.7589 21.7048 25.6789 21.5466 25.5853L21.4488 26.3028L23.5037 28.6144L25.5497 26.3028L25.4522 25.5853C25.3019 25.6738 25.1422 25.7538 24.965 25.8244C24.1416 26.1522 22.8575 26.1522 22.0425 25.8244ZM20.4128 24.6731L20.3509 24.62C19.3941 23.7697 18.925 22.6006 18.925 21.325V18.455C18.925 15.7447 20.8381 14 23.5041 14C26.17 14 28.0744 15.7447 28.0744 18.455V21.325C28.0744 22.6006 27.605 23.7697 26.6484 24.62L26.5863 24.6731L26.79 26.1788L27.8619 27.1175L30.9 28.4375C31.5556 28.73 32.0781 29.1816 32.4412 29.7484C32.8044 30.3241 32.9994 30.9972 32.9994 31.7147V33.4419C32.9994 33.7872 32.7247 34.0709 32.3794 34.0709C32.0341 34.0709 31.7503 33.7875 31.7503 33.4419V31.7147C31.7503 31.2275 31.6266 30.7847 31.3872 30.4216C31.1499 30.0501 30.8078 29.7573 30.4041 29.5803L27.9153 28.4997L26.87 31.7681C26.7725 32.0959 26.4184 32.2731 26.0906 32.1756C26.0287 32.1491 25.9666 32.1225 25.9134 32.0781L24.1241 30.7759V33.4419C24.1241 33.7872 23.8497 34.0709 23.5044 34.0709C23.1591 34.0709 22.875 33.7872 22.875 33.4419V30.7759L21.0947 32.0869L20.9088 32.1753C20.7514 32.2231 20.5815 32.2072 20.4357 32.1309C20.29 32.0547 20.18 31.9243 20.1294 31.7678L19.0931 28.4994L16.5953 29.58C16.1791 29.7659 15.8425 30.0581 15.6122 30.4212C15.3819 30.7844 15.2491 31.2275 15.2491 31.7144V39.5528C15.2491 39.8984 14.9744 40.1819 14.6291 40.1819C14.2837 40.1819 14 39.8991 14 39.5534V31.7147C14 30.9972 14.195 30.3241 14.5669 29.7484C14.9212 29.1816 15.4438 28.7297 16.0991 28.4375L19.1372 27.1178L20.2091 26.1791L20.4128 24.6731ZM21.4491 23.9291C21.4844 23.9556 21.5113 23.9822 21.5378 24.0175C21.83 24.2744 22.1309 24.5225 22.4944 24.6641C23.0172 24.8678 23.9916 24.8678 24.5053 24.6641C24.8684 24.5222 25.1697 24.2744 25.4619 24.0175C25.4888 23.9822 25.5241 23.9556 25.5594 23.9291C25.6481 23.8494 25.7366 23.7697 25.8162 23.6897C26.5072 23.0697 26.8259 22.2459 26.8259 21.325V19.9966C24.5319 20.4303 23.2297 19.3853 22.5653 18.5175C21.8212 19.3944 20.8737 19.4384 20.1828 19.3056V21.325C20.1828 22.2459 20.4928 23.0697 21.1838 23.6897L21.4491 23.9291ZM20.7406 27.3744L20.1912 27.8528L21.0503 30.5631L22.5825 29.4472L20.7406 27.3744ZM26.2587 27.3744L24.4253 29.4472L25.9487 30.5631L26.8081 27.8528L26.2587 27.3744ZM17.6669 35.3731C17.6669 35.0278 17.9503 34.7441 18.2959 34.7441C18.6416 34.7441 18.9159 35.0275 18.9159 35.3731V39.5534C18.9159 39.8991 18.6413 40.1825 18.2959 40.1825C17.9506 40.1825 17.6669 39.8994 17.6669 39.5534V35.3731ZM20.2003 18.03C20.6878 18.1541 21.5378 18.1894 21.9984 17.0556C22.22 16.5241 22.955 16.5066 23.1675 17.1C23.1675 17.1 23.9556 19.3763 26.8256 18.7209V18.455C26.8256 16.4356 25.4794 15.2487 23.5041 15.2487C21.7238 15.2487 20.3866 16.2141 20.2003 18.03ZM39.9791 41.2191C38.8363 40.2091 38.2784 38.9956 38.2784 37.4631V34.2216C38.2784 31.2188 40.3953 29.2791 43.3628 29.2791C46.3213 29.2791 48.4378 31.2191 48.4378 34.2216V37.4631C48.4378 38.9953 47.8884 40.2087 46.7463 41.2191L46.9944 43.7962L51.6797 45.5591C53.1322 46.1969 54.0003 47.6053 54.0003 49.1819V53.3713C54.0003 53.7166 53.7172 54.0003 53.3716 54.0003C53.0259 54.0003 52.7516 53.7169 52.7516 53.3713V49.1819C52.7516 48.1012 52.1937 47.1534 51.1925 46.7106L46.1972 44.8241C44.3287 44.2309 42.4416 44.1066 40.5462 44.6647L35.5241 46.7106C34.5322 47.1534 33.9741 48.1012 33.9741 49.1819V53.3713C33.9734 53.5379 33.9069 53.6975 33.7891 53.8153C33.6713 53.9332 33.5116 53.9997 33.345 54.0003C33 54.0003 32.7253 53.7169 32.7253 53.3713V49.1819C32.7253 47.6053 33.5931 46.1969 35.0459 45.5591L39.7494 43.6459L39.9791 41.2191ZM45.2669 41.8387H41.4494C41.29 41.8387 41.1569 41.9628 41.1394 42.1219L41.0331 43.2559C42.5916 42.9459 44.1597 43.0166 45.7009 43.3888L45.5769 42.1219C45.5678 41.9628 45.435 41.8387 45.2669 41.8387ZM41.3962 40.6078H45.32C45.55 40.6078 45.8338 40.395 46.0819 40.1559C46.8347 39.4119 47.1891 38.5441 47.1891 37.4634V34.2216C47.1891 31.9006 45.6391 30.5278 43.3628 30.5278C41.0866 30.5278 39.5275 31.9009 39.5275 34.2216V37.4631C39.5275 38.6059 39.9437 39.5356 40.7944 40.2887C40.9978 40.4747 41.21 40.6078 41.3962 40.6078Z" fill="#2C2E40"/>
<path d="M20.4321 41.0861L21.468 35.1517C21.6277 34.2395 22.4955 33.4951 23.4168 33.4951H33.948C34.9752 33.4951 35.6752 34.3723 35.4983 35.3642L34.1696 42.937C34.0011 43.9114 33.0802 44.7086 32.088 44.7086H18.5455C17.8543 44.7086 17.1636 44.3189 16.9864 43.6101L16.5614 41.8651C16.4639 41.4667 16.7652 41.0857 17.1639 41.0857L20.4321 41.0861ZM28.3858 38.4554C28.7311 38.4554 29.0058 38.7301 29.0058 39.0751C29.0058 39.4204 28.7311 39.7042 28.3858 39.7042C28.0405 39.7042 27.7568 39.4207 27.7568 39.0751C27.7571 38.7301 28.0405 38.4554 28.3858 38.4554ZM21.3708 42.9373C21.3264 43.2386 21.4771 43.4598 21.7871 43.4598H32.0883C32.4868 43.4598 32.8677 43.1145 32.9389 42.7245L34.2674 35.1517C34.3118 34.9123 34.1877 34.7442 33.9483 34.7442H23.4171C23.0893 34.7442 22.7614 35.0367 22.6996 35.3642L21.3708 42.9373ZM20.2105 42.3348H17.9608L18.1999 43.3092C18.3064 43.4951 18.4568 43.4595 18.5455 43.4595H20.1574C20.1043 43.2204 20.1043 42.9636 20.1396 42.7242L20.2105 42.3348Z" fill="#2C2E40"/>
</g>
<defs>
<clipPath id="clip0_26_869">
<rect width="40" height="40" fill="white" transform="translate(14 14)"/>
</clipPath>
</defs>
</svg>
