<svg width="68" height="68" viewBox="0 0 68 68" fill="none" xmlns="http://www.w3.org/2000/svg">
<circle cx="34" cy="34" r="34" fill="white"/>
<g clip-path="url(#clip0_26_857)">
<path d="M49.3996 36.8279C48.8251 36.4963 48.1928 36.2772 47.5363 36.1822V31.8201C48.3846 31.6964 49.1896 31.3668 49.8812 30.8603C50.5728 30.3537 51.1298 29.6855 51.5036 28.9141C51.8775 28.1426 52.0567 27.2914 52.0258 26.4347C51.9949 25.578 51.7547 24.7419 51.3262 23.9995C50.8977 23.257 50.2939 22.6307 49.5676 22.1754C48.8413 21.72 48.0146 21.4494 47.1596 21.3871C46.3046 21.3249 45.4474 21.4729 44.6628 21.8182C43.8782 22.1636 43.1901 22.6958 42.6586 23.3684L38.8777 21.1851C39.1946 20.3886 39.3117 19.5267 39.2187 18.6745C39.1257 17.8224 38.8254 17.006 38.3442 16.2966C37.8629 15.5873 37.2153 15.0065 36.4578 14.6052C35.7004 14.2038 34.8562 13.994 33.999 13.9941C33.1418 13.9943 32.2977 14.2043 31.5403 14.6058C30.783 15.0074 30.1355 15.5883 29.6544 16.2977C29.1733 17.0072 28.8733 17.8237 28.7805 18.6759C28.6877 19.5281 28.805 20.39 29.1222 21.1864L25.3409 23.3689C24.8097 22.6967 24.122 22.1648 23.3378 21.8197C22.5537 21.4745 21.697 21.3266 20.8425 21.3888C19.988 21.4511 19.1618 21.7216 18.4359 22.1767C17.7101 22.6318 17.1067 23.2578 16.6785 23.9998C16.2511 24.7421 16.0117 25.5775 15.981 26.4335C15.9503 27.2894 16.1293 28.1399 16.5024 28.9109C16.8755 29.6818 17.4314 30.3499 18.1216 30.857C18.8119 31.364 19.6157 31.6947 20.4629 31.8201V36.1795C19.6155 36.3046 18.8115 36.635 18.121 37.142C17.4305 37.649 16.8744 38.3171 16.5012 39.0882C16.1281 39.8593 15.9491 40.7099 15.98 41.566C16.0108 42.422 16.2505 43.2576 16.6782 43.9998C17.075 44.6876 17.6226 45.2764 18.2799 45.7218C18.9372 46.1672 19.6871 46.4577 20.4729 46.5712C21.2587 46.6848 22.0601 46.6186 22.8166 46.3775C23.5732 46.1364 24.2651 45.7268 24.8404 45.1795C24.861 45.1628 24.8803 45.1447 24.8983 45.1253C25.0564 44.9698 25.2043 44.8044 25.3412 44.63L29.122 46.8129C28.7409 47.7685 28.6499 48.8153 28.8603 49.8225C29.0707 50.8296 29.5732 51.7524 30.305 52.4756C30.3326 52.5091 30.364 52.5391 30.3987 52.5652C31.3718 53.4868 32.6611 54.0002 34.0013 53.9997C35.3415 53.9992 36.6305 53.4848 37.6029 52.5625C37.6348 52.5381 37.664 52.5103 37.6899 52.4795C38.4228 51.7565 38.9264 50.8335 39.1376 49.8259C39.3488 48.8183 39.2583 47.7707 38.8774 46.8143L42.6579 44.6307C43.1484 45.2512 43.7726 45.753 44.484 46.0987C45.1955 46.4444 45.9757 46.625 46.7667 46.6271C47.2281 46.6267 47.6875 46.5659 48.1332 46.4461C49.136 46.1771 50.0366 45.6169 50.7211 44.8362C51.4055 44.0555 51.8432 43.0894 51.9788 42.06C52.1143 41.0306 51.9416 39.9841 51.4825 39.0529C51.0235 38.1216 50.2986 37.3473 49.3996 36.8279ZM48.8527 30.2221C48.1114 30.6499 47.2562 30.8387 46.4037 30.7628C45.5512 30.687 44.7428 30.3501 44.0887 29.7982C44.217 29.181 44.5539 28.6269 45.0427 28.2289C45.5316 27.831 46.1425 27.6136 46.7729 27.6132C47.4032 27.6128 48.0145 27.8295 48.5038 28.2269C48.9931 28.6242 49.3306 29.178 49.4597 29.795C49.2703 29.9549 49.0672 30.0978 48.8526 30.222L48.8527 30.2221ZM45.8068 25.549C45.8072 25.3577 45.8643 25.1708 45.9709 25.0119C46.0775 24.8531 46.2289 24.7294 46.4057 24.6564C46.5826 24.5835 46.7772 24.5647 46.9648 24.6023C47.1523 24.6399 47.3246 24.7322 47.4597 24.8677C47.5948 25.0031 47.6868 25.1756 47.724 25.3633C47.7611 25.5509 47.7418 25.7454 47.6685 25.9221C47.5952 26.0989 47.4711 26.2499 47.312 26.3561C47.1529 26.4623 46.9658 26.519 46.7745 26.519C46.6472 26.5189 46.5213 26.4937 46.4038 26.4449C46.2862 26.3961 46.1795 26.3246 46.0896 26.2345C45.9997 26.1444 45.9285 26.0375 45.88 25.9199C45.8314 25.8022 45.8065 25.6762 45.8067 25.5489L45.8068 25.549ZM44.6963 23.0263C45.3258 22.6605 46.0407 22.4675 46.7688 22.4669C47.1341 22.4672 47.4977 22.5153 47.8504 22.6102C48.3782 22.75 48.8729 22.9932 49.3059 23.3256C49.739 23.658 50.1018 24.073 50.3732 24.5467C50.6473 25.0186 50.8251 25.5402 50.8963 26.0813C50.9675 26.6224 50.9306 27.1723 50.7879 27.699C50.6812 28.0989 50.5156 28.4807 50.2965 28.8318C49.9193 27.958 49.2304 27.2558 48.3639 26.8622C48.613 26.5606 48.7712 26.1945 48.82 25.8064C48.8688 25.4183 48.8062 25.0244 48.6396 24.6706C48.4729 24.3167 48.2091 24.0176 47.8788 23.8081C47.5485 23.5986 47.1655 23.4873 46.7744 23.4873C46.3833 23.4873 46.0002 23.5986 45.67 23.8081C45.3397 24.0176 45.0758 24.3167 44.9092 24.6706C44.7425 25.0244 44.68 25.4183 44.7288 25.8064C44.7776 26.1945 44.9358 26.5606 45.1849 26.8622C44.3193 27.2556 43.6309 27.9567 43.2534 28.8293C43.227 28.7871 43.2005 28.7449 43.1753 28.7015C42.6256 27.747 42.477 26.6133 42.7622 25.5494C43.0473 24.4854 43.7429 23.578 44.6962 23.0262L44.6963 23.0263ZM34.0007 15.0936C34.7426 15.0932 35.4711 15.2916 36.1104 15.6681C36.7497 16.0447 37.2764 16.5857 37.6358 17.2348C37.9951 17.884 38.174 18.6175 38.1537 19.3592C38.1335 20.1009 37.9149 20.8236 37.5207 21.4522C37.143 20.5802 36.4552 19.8794 35.5904 19.4856C35.8397 19.1839 35.998 18.8175 36.0469 18.4291C36.0958 18.0408 36.0332 17.6465 35.8665 17.2924C35.6997 16.9383 35.4357 16.639 35.1052 16.4293C34.7747 16.2196 34.3914 16.1083 34 16.1083C33.6086 16.1083 33.2252 16.2196 32.8947 16.4293C32.5642 16.639 32.3002 16.9383 32.1334 17.2924C31.9667 17.6465 31.9041 18.0408 31.953 18.4291C32.0019 18.8175 32.1602 19.1839 32.4096 19.4856C31.5447 19.8793 30.8568 20.5799 30.4788 21.4518C30.0844 20.8231 29.8658 20.1002 29.8456 19.3584C29.8254 18.6165 30.0044 17.8828 30.364 17.2337C30.7236 16.5845 31.2506 16.0436 31.8902 15.6672C32.5298 15.2908 33.2586 15.0927 34.0007 15.0936ZM33.0308 18.1743C33.0306 17.9827 33.0872 17.7954 33.1935 17.636C33.2998 17.4766 33.4509 17.3522 33.6279 17.2787C33.8048 17.2052 33.9995 17.1858 34.1875 17.223C34.3754 17.2601 34.5481 17.3522 34.6838 17.4875C34.8194 17.6228 34.9119 17.7953 34.9495 17.9832C34.9871 18.1711 34.9681 18.3658 34.895 18.5429C34.8219 18.72 34.698 18.8715 34.5388 18.9781C34.3796 19.0848 34.1924 19.1418 34.0008 19.1421C33.744 19.1418 33.4978 19.0398 33.316 18.8585C33.1342 18.6771 33.0317 18.4311 33.0308 18.1743ZM34.0008 20.2361C34.6308 20.2356 35.2418 20.4523 35.7307 20.8495C36.2197 21.2468 36.5568 21.8004 36.6854 22.4172C35.9359 23.055 34.9839 23.4053 33.9997 23.4052C33.0156 23.4051 32.0636 23.0547 31.3143 22.4167C31.4433 21.7999 31.7809 21.2464 32.2701 20.8492C32.7594 20.4521 33.3705 20.2356 34.0007 20.2361H34.0008ZM17.6258 24.5467C17.8986 24.0741 18.2618 23.6598 18.6947 23.3276C19.1276 22.9953 19.6217 22.7516 20.1488 22.6103C20.6759 22.469 21.2256 22.4329 21.7667 22.5041C22.3077 22.5752 22.8294 22.7523 23.302 23.0251C23.7746 23.2979 24.1889 23.6611 24.5212 24.094C24.8534 24.5269 25.0971 25.021 25.2384 25.5481C25.3797 26.0751 25.4158 26.6249 25.3446 27.1659C25.2735 27.707 25.0964 28.2287 24.8236 28.7013C24.7988 28.7443 24.7725 28.786 24.7464 28.8279C24.3683 27.9562 23.6802 27.2559 22.8154 26.8625C23.0648 26.5609 23.2232 26.1946 23.2722 25.8064C23.3211 25.4182 23.2587 25.024 23.0921 24.67C22.9254 24.3159 22.6616 24.0166 22.3312 23.8069C22.0008 23.5972 21.6176 23.4858 21.2263 23.4857C20.835 23.4856 20.4518 23.5969 20.1213 23.8064C19.7909 24.016 19.5269 24.3152 19.3601 24.6692C19.1933 25.0231 19.1307 25.4173 19.1795 25.8055C19.2283 26.1937 19.3865 26.5601 19.6357 26.8618C18.7691 27.2555 18.08 27.9578 17.7027 28.8318C17.4836 28.4806 17.318 28.0988 17.2114 27.6989C17.0686 27.1722 17.0317 26.6224 17.1028 26.0813C17.174 25.5402 17.3517 25.0186 17.6258 24.5467ZM20.2569 25.5488C20.2572 25.3572 20.3142 25.17 20.4209 25.0108C20.5275 24.8517 20.6789 24.7277 20.856 24.6546C21.0331 24.5815 21.2279 24.5625 21.4158 24.6001C21.6036 24.6377 21.7761 24.7302 21.9114 24.8658C22.0468 25.0014 22.1388 25.1741 22.176 25.3621C22.2132 25.55 22.1938 25.7448 22.1203 25.9217C22.0468 26.0986 21.9225 26.2498 21.7631 26.3561C21.6037 26.4623 21.4163 26.519 21.2247 26.5188C21.0975 26.5187 20.9715 26.4935 20.854 26.4447C20.7365 26.3959 20.6298 26.3244 20.5399 26.2343C20.4501 26.1443 20.3788 26.0374 20.3303 25.9198C20.2817 25.8022 20.2568 25.6762 20.2569 25.5489V25.5488ZM18.5397 29.795C18.6688 29.178 19.0065 28.6243 19.4958 28.227C19.9851 27.8296 20.5963 27.6128 21.2267 27.6131C21.857 27.6133 22.4681 27.8305 22.9571 28.2282C23.4462 28.6259 23.7834 29.1798 23.9122 29.7968C23.258 30.3493 22.4494 30.6865 21.5965 30.7626C20.7437 30.8387 19.8881 30.6499 19.1465 30.2219C18.932 30.0978 18.729 29.9549 18.5397 29.795ZM19.1486 37.7754C19.9517 37.3121 20.8868 37.1307 21.805 37.2601C22.7231 37.3896 23.5716 37.8225 24.2153 38.4899C24.859 39.1573 25.2609 40.0209 25.3571 40.9432C25.4533 41.8654 25.2382 42.7933 24.7461 43.5792C24.3679 42.7078 23.6799 42.0076 22.8154 41.6142C23.0646 41.3126 23.2229 40.9463 23.2719 40.5581C23.3208 40.17 23.2583 39.7759 23.0917 39.4219C22.925 39.0679 22.6612 38.7686 22.3308 38.5589C22.0005 38.3492 21.6173 38.2378 21.2261 38.2377C20.8348 38.2376 20.4516 38.3488 20.1212 38.5583C19.7907 38.7678 19.5267 39.067 19.3599 39.4209C19.1931 39.7749 19.1304 40.1689 19.1791 40.5571C19.2279 40.9454 19.386 41.3117 19.6351 41.6134C18.7696 42.0067 18.0812 42.7077 17.7038 43.5802C17.6775 43.5382 17.6509 43.4963 17.6257 43.453C17.0766 42.4977 16.9286 41.3638 17.214 40.2996C17.4995 39.2354 18.1951 38.3277 19.1486 37.7754ZM20.2569 40.3004C20.2571 40.1088 20.3142 39.9215 20.4208 39.7624C20.5274 39.6032 20.6789 39.4792 20.856 39.4061C21.0331 39.333 21.2279 39.314 21.4157 39.3516C21.6036 39.3892 21.7761 39.4816 21.9114 39.6173C22.0467 39.7529 22.1388 39.9256 22.176 40.1135C22.2132 40.3015 22.1938 40.4962 22.1203 40.6732C22.0468 40.8501 21.9225 41.0013 21.7631 41.1075C21.6037 41.2138 21.4163 41.2705 21.2247 41.2703C21.0975 41.2702 20.9715 41.245 20.854 41.1962C20.7365 41.1473 20.6298 41.0759 20.5399 40.9858C20.45 40.8957 20.3788 40.7888 20.3302 40.6712C20.2817 40.5536 20.2568 40.4276 20.2569 40.3004ZM23.303 44.9734C22.5614 45.4005 21.7062 45.5886 20.8538 45.5121C20.0014 45.4356 19.1933 45.0982 18.5397 44.5459C18.6689 43.9293 19.0062 43.376 19.4952 42.9788C19.9841 42.5816 20.5948 42.3647 21.2248 42.3645C21.8547 42.3643 22.4656 42.5808 22.9547 42.9777C23.4439 43.3747 23.7816 43.9278 23.9112 44.5443C23.7217 44.7052 23.5181 44.8488 23.303 44.9734ZM31.3144 51.9181C31.444 51.3018 31.7816 50.7489 32.2706 50.3521C32.7595 49.9553 33.3701 49.7388 33.9998 49.7388C34.6296 49.7389 35.2401 49.9555 35.729 50.3524C36.2179 50.7493 36.5554 51.3023 36.6849 51.9186C35.9353 52.5559 34.9835 52.9058 33.9996 52.9058C33.0157 52.9057 32.0639 52.5556 31.3144 51.9181ZM33.0308 47.6749C33.0311 47.4834 33.088 47.2963 33.1946 47.1371C33.3011 46.978 33.4524 46.854 33.6294 46.7808C33.8063 46.7077 34.001 46.6886 34.1888 46.726C34.3766 46.7634 34.5491 46.8556 34.6846 46.991C34.82 47.1264 34.9122 47.2989 34.9496 47.4867C34.9871 47.6745 34.968 47.8692 34.8948 48.0462C34.8217 48.2232 34.6977 48.3745 34.5386 48.481C34.3794 48.5876 34.1923 48.6446 34.0008 48.6448C33.7436 48.6448 33.4969 48.5426 33.315 48.3607C33.1331 48.1788 33.0308 47.9321 33.0308 47.6749ZM37.5206 50.9546C37.1427 50.0827 36.4548 49.3821 35.59 48.9885C35.8395 48.6868 35.998 48.3204 36.047 47.932C36.096 47.5436 36.0335 47.1493 35.8668 46.795C35.7001 46.4408 35.4361 46.1414 35.1055 45.9316C34.775 45.7219 34.3916 45.6105 34.0001 45.6105C33.6086 45.6105 33.2252 45.7219 32.8947 45.9316C32.5642 46.1414 32.3001 46.4408 32.1334 46.795C31.9667 47.1493 31.9042 47.5436 31.9532 47.932C32.0023 48.3204 32.1608 48.6868 32.4103 48.9885C31.5454 49.382 30.8573 50.0825 30.4792 50.9542C30.0849 50.3253 29.8662 49.6022 29.8459 48.8602C29.8256 48.1182 30.0044 47.3843 30.3638 46.7348C30.7232 46.0853 31.25 45.5439 31.8894 45.1669C32.5288 44.7899 33.2576 44.5911 33.9999 44.5911C34.7422 44.5911 35.4709 44.7899 36.1104 45.1669C36.7498 45.5439 37.2766 46.0853 37.636 46.7348C37.9953 47.3843 38.1742 48.1182 38.1539 48.8602C38.1336 49.6022 37.9149 50.3253 37.5206 50.9542V50.9546ZM38.3693 45.8448C37.891 45.124 37.2418 44.5327 36.4796 44.1237C35.7173 43.7146 34.8657 43.5005 34.0007 43.5004C33.1356 43.5002 32.2839 43.7141 31.5216 44.123C30.7592 44.5318 30.1098 45.1229 29.6313 45.8436L25.9268 43.7048C26.272 43.0088 26.4583 42.2448 26.4724 41.4681C26.4864 40.6913 26.3278 39.9211 26.008 39.2131C25.6882 38.505 25.2152 37.8769 24.6231 37.3739C24.031 36.8709 23.3346 36.5056 22.5842 36.3045C22.2482 36.2142 21.9041 36.1572 21.5569 36.1343V31.8647C21.9039 31.8419 22.2478 31.785 22.5837 31.6949C23.4508 31.4644 24.2439 31.0141 24.8861 30.3875L24.8907 30.3829C25.6844 29.6076 26.2121 28.6007 26.3982 27.5069C26.5842 26.413 26.419 25.2883 25.9263 24.2942L29.6309 22.1561C29.83 22.4542 30.0589 22.7314 30.3141 22.9833C30.3372 23.01 30.3629 23.0345 30.3907 23.0563C31.3644 23.9833 32.6575 24.5001 34.0019 24.4996C35.3463 24.4991 36.639 23.9813 37.612 23.0536C37.6371 23.0336 37.6603 23.0114 37.6815 22.9873C37.9385 22.7341 38.1689 22.4552 38.369 22.1551L42.0731 24.2939C41.6897 25.0691 41.5036 25.9268 41.5313 26.7911C41.559 27.6554 41.7996 28.4995 42.2318 29.2485C42.6641 29.9975 43.2745 30.6282 44.009 31.0846C44.7434 31.5411 45.5792 31.8091 46.4422 31.865V36.1385C45.5789 36.1927 44.7424 36.4596 44.0072 36.9153C43.272 37.3711 42.661 38.0016 42.2284 38.7507C41.7959 39.4998 41.5554 40.3442 41.5282 41.2088C41.5011 42.0734 41.6881 42.9312 42.0728 43.706L38.3693 45.8448ZM47.8505 45.3895C47.2022 45.5637 46.5212 45.5779 45.8661 45.4309C45.2111 45.2839 44.6015 44.9802 44.0897 44.5457C44.2188 43.9289 44.5565 43.3753 45.0458 42.978C45.5352 42.5808 46.1464 42.3642 46.7766 42.3647C47.4069 42.3652 48.0178 42.5826 48.5066 42.9806C48.9953 43.3785 49.3322 43.9326 49.4604 44.5497C48.9925 44.9454 48.4426 45.2322 47.8504 45.3895H47.8505ZM45.8068 40.3004C45.8073 40.109 45.8644 39.9221 45.971 39.7632C46.0776 39.6044 46.2289 39.4806 46.4058 39.4077C46.5826 39.3348 46.7772 39.3159 46.9648 39.3535C47.1524 39.3911 47.3246 39.4834 47.4598 39.6189C47.5949 39.7543 47.6869 39.9268 47.724 40.1145C47.7612 40.3022 47.7419 40.4967 47.6686 40.6734C47.5952 40.8501 47.4712 41.0011 47.3121 41.1074C47.1529 41.2136 46.9659 41.2703 46.7746 41.2703C46.6473 41.2702 46.5214 41.245 46.4038 41.1962C46.2863 41.1474 46.1796 41.0759 46.0897 40.9858C45.9998 40.8957 45.9286 40.7889 45.88 40.6712C45.8314 40.5536 45.8065 40.4276 45.8067 40.3004H45.8068ZM50.3732 43.4529C50.3481 43.496 50.322 43.5385 50.2951 43.5804C49.9177 42.7078 49.2293 42.0066 48.3636 41.6133C48.6127 41.3118 48.7709 40.9456 48.8197 40.5576C48.8685 40.1695 48.8059 39.7756 48.6392 39.4218C48.4726 39.068 48.2087 38.7689 47.8785 38.5594C47.5482 38.3499 47.1652 38.2386 46.7741 38.2386C46.383 38.2386 45.9999 38.3499 45.6697 38.5594C45.3394 38.7689 45.0756 39.068 44.9089 39.4218C44.7422 39.7756 44.6797 40.1695 44.7285 40.5576C44.7773 40.9456 44.9354 41.3118 45.1845 41.6133C44.3191 42.0066 43.6308 42.7076 43.2532 43.58C42.8627 42.9564 42.6447 42.2402 42.6216 41.5048C42.5985 40.7693 42.7711 40.0409 43.1217 39.3941C43.4724 38.7472 43.9885 38.205 44.6173 37.8229C45.2462 37.4408 45.9652 37.2326 46.7009 37.2195C47.4366 37.2064 48.1626 37.3888 48.8047 37.7482C49.4467 38.1076 49.9819 38.631 50.3554 39.265C50.7289 39.899 50.9273 40.6207 50.9305 41.3565C50.9336 42.0924 50.7413 42.8158 50.3732 43.4529ZM34.0007 26.3882C32.4951 26.3878 31.0233 26.8338 29.7713 27.6699C28.5193 28.506 27.5433 29.6946 26.9669 31.0854C26.3904 32.4762 26.2394 34.0067 26.5328 35.4834C26.8263 36.96 27.551 38.3165 28.6154 39.3812C29.6798 40.4459 31.0361 41.1711 32.5126 41.465C33.9892 41.7588 35.5197 41.6082 36.9107 41.0322C38.3017 40.4562 39.4906 39.4806 40.327 38.2288C41.1635 36.977 41.61 35.5053 41.61 33.9998C41.6077 31.9822 40.8054 30.0478 39.3789 28.6209C37.9524 27.194 36.0183 26.3911 34.0007 26.3882ZM35.7766 40.2692C35.3751 40.3831 34.9636 40.4579 34.5477 40.4926V36.5707H37.3914C37.0888 37.8923 36.5418 39.1456 35.7786 40.2661C35.7777 40.2672 35.7772 40.2682 35.7766 40.2692ZM32.1871 40.2586C31.4365 39.1384 30.9018 37.8878 30.6107 36.5711H33.4536V40.493C33.0247 40.4572 32.6004 40.3787 32.1871 40.2586ZM27.4832 33.9998C27.4835 33.5025 27.5408 33.0069 27.654 32.5227H29.4353C29.3289 33.1942 29.2786 33.8734 29.285 34.5532C29.2887 34.8632 29.3062 35.1711 29.3348 35.4769H27.654C27.5408 34.9927 27.4835 34.4971 27.4832 33.9998ZM30.5443 32.5227H33.4536V35.4769H30.4365C30.3388 34.4918 30.3751 33.498 30.5443 32.5227ZM33.4536 27.5071V31.4289H30.7785C31.126 30.1363 31.6276 28.89 32.2725 27.717C32.6588 27.6106 33.0543 27.5403 33.4536 27.507V27.5071ZM35.7964 27.7361C36.4305 28.9038 36.9217 30.1436 37.2596 31.4286H34.5477V27.5068C34.9705 27.5421 35.3887 27.6189 35.7964 27.7361ZM34.5477 35.4769V32.5227H37.4857C37.6489 33.4989 37.6785 34.4927 37.5738 35.4769H34.5477ZM38.5938 32.5227H40.3452C40.5729 33.4943 40.5729 34.5053 40.3452 35.4769H38.6747C38.7079 35.1463 38.7283 34.8134 38.7324 34.4779C38.7386 33.8235 38.6922 33.1697 38.5938 32.5227ZM39.9866 31.4289H38.3843C38.1365 30.3913 37.7887 29.3802 37.3457 28.4097C38.5197 29.1155 39.4432 30.1712 39.9866 31.4286V31.4289ZM30.7267 28.3679C30.2691 29.3506 29.9087 30.3758 29.6504 31.4286H28.0128C28.5679 30.1451 29.5188 29.0726 30.7267 28.3679ZM28.0128 36.571H29.4918C29.6897 37.5805 30.022 38.5589 30.4797 39.4801C29.3873 38.7763 28.5286 37.7637 28.0128 36.571ZM37.4904 39.4993C37.9609 38.5735 38.3044 37.5885 38.5118 36.571H39.9866C39.4661 37.7748 38.5966 38.7948 37.4904 39.4993Z" fill="#2C2E40"/>
</g>
<defs>
<clipPath id="clip0_26_857">
<rect width="40" height="40" fill="white" transform="translate(14 14)"/>
</clipPath>
</defs>
</svg>
