<svg width="68" height="68" viewBox="0 0 68 68" fill="none" xmlns="http://www.w3.org/2000/svg">
<circle cx="34" cy="34" r="34" fill="white"/>
<g clip-path="url(#clip0_26_863)">
<path d="M33.9994 30.3875C36.2147 30.3875 38.0105 28.5917 38.0105 26.3764C38.0105 24.1611 36.2147 22.3652 33.9994 22.3652C31.7841 22.3652 29.9883 24.1611 29.9883 26.3764C29.9883 28.5917 31.7841 30.3875 33.9994 30.3875Z" stroke="#2C2E40" stroke-miterlimit="10" stroke-linecap="round" stroke-linejoin="round"/>
<path d="M39.1991 21.578C41.1299 21.578 42.6952 20.0127 42.6952 18.082C42.6952 16.1512 41.1299 14.5859 39.1991 14.5859C37.2683 14.5859 35.7031 16.1512 35.7031 18.082C35.7031 20.0127 37.2683 21.578 39.1991 21.578Z" stroke="#2C2E40" stroke-miterlimit="10" stroke-linecap="round" stroke-linejoin="round"/>
<path d="M28.8515 21.578C30.7823 21.578 32.3475 20.0127 32.3475 18.082C32.3475 16.1512 30.7823 14.5859 28.8515 14.5859C26.9207 14.5859 25.3555 16.1512 25.3555 18.082C25.3555 20.0127 26.9207 21.578 28.8515 21.578Z" stroke="#2C2E40" stroke-miterlimit="10" stroke-linecap="round" stroke-linejoin="round"/>
<path d="M23.6656 29.1706C25.6318 29.1706 27.2258 27.5767 27.2258 25.6104C27.2258 23.6442 25.6318 22.0503 23.6656 22.0503C21.6994 22.0503 20.1055 23.6442 20.1055 25.6104C20.1055 27.5767 21.6994 29.1706 23.6656 29.1706Z" stroke="#2C2E40" stroke-miterlimit="10" stroke-linecap="round" stroke-linejoin="round"/>
<path d="M44.2608 29.1704C41.7493 29.2041 39.681 31.0129 39.1643 33.3791C39.6881 34.2819 39.9636 35.3072 39.9629 36.3509V39.0441C40.0156 39.052 40.069 39.0573 40.1238 39.0573H48.5412C49.1405 39.0573 49.6262 38.5715 49.6262 37.9723V34.4637C49.6262 31.5282 47.2048 29.1309 44.2608 29.1704ZM28.0344 36.4292C28.0338 35.3623 28.3146 34.3142 28.8484 33.3904C28.3441 30.9664 26.1686 29.1359 23.5931 29.1705C20.6861 29.2095 18.3711 31.626 18.3711 34.5332V37.9724C18.3711 38.5716 18.8569 39.0574 19.4561 39.0574H27.8735C27.9283 39.0574 27.9817 39.052 28.0344 39.0442V36.4292Z" stroke="#2C2E40" stroke-miterlimit="10" stroke-linecap="round" stroke-linejoin="round"/>
<path d="M27.2264 25.6105C27.2264 27.5768 25.6324 29.1707 23.6662 29.1707C23.6612 29.1707 23.6564 29.1704 23.6514 29.1703V29.1712C26.2019 29.1642 28.3492 30.9845 28.8497 33.3906L28.8489 33.3921C29.8677 31.6256 31.7462 30.4166 33.9192 30.3874C33.9456 30.387 33.9719 30.3874 33.9982 30.3873C31.7837 30.3864 29.9888 28.591 29.9888 26.3763C29.9888 24.8141 30.8825 23.4614 32.1859 22.7991C31.2646 22.0242 30.0739 21.5607 28.7793 21.5781C27.6094 21.5938 26.5375 22.0021 25.6794 22.6744C26.6135 23.3163 27.2264 24.3917 27.2264 25.6105ZM38.0111 26.3764C38.0111 28.5911 36.2163 30.3865 34.0018 30.3874C36.2017 30.3881 38.1331 31.5955 39.1663 33.3805L39.1657 33.3794C39.6823 31.0132 41.7506 29.2044 44.2621 29.1707C44.3072 29.1701 44.3518 29.1718 44.3967 29.1723V29.169C44.3757 29.1694 44.355 29.1706 44.3339 29.1706C42.3676 29.1706 40.7737 27.5767 40.7737 25.6104C40.7737 24.3777 41.4002 23.2916 42.3521 22.6526C41.4584 21.9664 40.3386 21.5619 39.1279 21.5781C37.8765 21.5949 36.7371 22.0604 35.8516 22.8184C37.1347 23.4876 38.0111 24.8292 38.0111 26.3764ZM38.1437 49.0041C38.6558 48.505 38.3733 47.6354 37.6656 47.5326L36.1161 47.3074C35.9777 47.2873 35.8463 47.2339 35.7331 47.1517C35.62 47.0695 35.5285 46.961 35.4666 46.8355L34.7736 45.4315C34.4571 44.7903 33.5428 44.7903 33.2264 45.4315L32.5334 46.8355C32.4715 46.961 32.38 47.0695 32.2669 47.1517C32.1537 47.2339 32.0222 47.2873 31.8838 47.3074L30.3343 47.5326C29.6267 47.6354 29.3442 48.505 29.8561 49.0041L30.9774 50.097C31.0776 50.1946 31.1525 50.3151 31.1957 50.4482C31.2389 50.5812 31.2492 50.7227 31.2255 50.8606L30.9608 52.4038C30.84 53.1086 31.5797 53.646 32.2126 53.3133L33.5984 52.5847C33.7223 52.5196 33.86 52.4856 33.9999 52.4856C34.1398 52.4856 34.2775 52.5196 34.4013 52.5847L35.7872 53.3133C36.4201 53.646 37.1599 53.1086 37.039 52.4038L36.7743 50.8606C36.7506 50.7227 36.7608 50.5812 36.8041 50.4482C36.8473 50.3151 36.9222 50.1946 37.0224 50.097L38.1437 49.0041ZM46.4994 46.8346C46.8772 46.4664 46.6687 45.8249 46.1467 45.7491L45.0036 45.583C44.9015 45.5681 44.8046 45.5287 44.7211 45.468C44.6376 45.4074 44.5702 45.3273 44.5245 45.2348L44.0133 44.199C43.7799 43.726 43.1053 43.726 42.8719 44.199L42.3607 45.2348C42.315 45.3274 42.2476 45.4074 42.1641 45.468C42.0806 45.5287 41.9836 45.5681 41.8815 45.583L40.7384 45.7491C40.2165 45.8249 40.008 46.4664 40.3857 46.8346L41.2128 47.6409C41.2867 47.7129 41.342 47.8018 41.3739 47.8999C41.4057 47.998 41.4133 48.1025 41.3959 48.2042L41.2006 49.3426C41.1115 49.8625 41.6571 50.2589 42.124 50.0135L43.1464 49.476C43.2377 49.4279 43.3393 49.4028 43.4425 49.4028C43.5457 49.4028 43.6473 49.4279 43.7386 49.476L44.761 50.0135C45.2279 50.2589 45.7736 49.8625 45.6844 49.3426L45.4892 48.2042C45.4717 48.1025 45.4793 47.998 45.5112 47.8999C45.5431 47.8018 45.5983 47.7129 45.6722 47.6409L46.4994 46.8346ZM53.2539 43.6569C53.5675 43.3512 53.3944 42.8186 52.9611 42.7556L52.012 42.6177C51.9272 42.6054 51.8467 42.5726 51.7774 42.5223C51.708 42.4719 51.652 42.4055 51.6141 42.3286L51.1896 41.4686C50.9958 41.0759 50.4357 41.0759 50.242 41.4686L49.8175 42.3286C49.7796 42.4055 49.7236 42.4719 49.6542 42.5223C49.5849 42.5726 49.5044 42.6054 49.4196 42.6177L48.4705 42.7556C48.0371 42.8186 47.8641 43.3512 48.1777 43.6569L48.8645 44.3264C48.9259 44.3862 48.9718 44.46 48.9983 44.5415C49.0247 44.623 49.031 44.7097 49.0165 44.7941L48.8544 45.7394C48.7803 46.171 49.2334 46.5002 49.6211 46.2964L50.47 45.8501C50.5459 45.8103 50.6302 45.7894 50.7159 45.7894C50.8016 45.7894 50.886 45.8103 50.9618 45.8501L51.8107 46.2964C52.1984 46.5002 52.6515 46.171 52.5775 45.7394L52.4154 44.7941C52.4009 44.7097 52.4071 44.623 52.4336 44.5415C52.4601 44.46 52.506 44.3862 52.5673 44.3264L53.2539 43.6569ZM21.5005 46.8346C21.1228 46.4664 21.3312 45.8249 21.8533 45.7491L22.9963 45.583C23.0984 45.5681 23.1954 45.5287 23.2789 45.468C23.3623 45.4074 23.4298 45.3273 23.4755 45.2348L23.9866 44.199C24.2201 43.726 24.8946 43.726 25.1281 44.199L25.6392 45.2348C25.6849 45.3274 25.7524 45.4074 25.8359 45.468C25.9194 45.5287 26.0163 45.5681 26.1185 45.583L27.2615 45.7491C27.7835 45.8249 27.9919 46.4664 27.6142 46.8346L26.7871 47.6409C26.7132 47.7129 26.658 47.8018 26.6261 47.8999C26.5942 47.998 26.5867 48.1025 26.6041 48.2042L26.7993 49.3426C26.8885 49.8625 26.3428 50.2589 25.8759 50.0135L24.8535 49.476C24.7622 49.4279 24.6606 49.4028 24.5574 49.4028C24.4542 49.4028 24.3526 49.4279 24.2612 49.476L23.2389 50.0135C22.772 50.2589 22.2263 49.8625 22.3154 49.3426L22.5107 48.2042C22.5281 48.1025 22.5206 47.998 22.4887 47.8999C22.4568 47.8018 22.4015 47.7129 22.3276 47.6409L21.5005 46.8346ZM14.7461 43.6569C14.4325 43.3512 14.6055 42.8186 15.0389 42.7556L15.988 42.6177C16.0728 42.6054 16.1533 42.5726 16.2226 42.5223C16.2919 42.4719 16.3479 42.4055 16.3859 42.3286L16.8103 41.4686C17.0041 41.0759 17.5642 41.0759 17.758 41.4686L18.1824 42.3286C18.2204 42.4055 18.2764 42.4719 18.3457 42.5223C18.415 42.5726 18.4955 42.6054 18.5803 42.6177L19.5294 42.7556C19.9628 42.8186 20.1359 43.3512 19.8222 43.6569L19.1354 44.3264C19.0741 44.3862 19.0282 44.46 19.0017 44.5415C18.9752 44.623 18.969 44.7097 18.9835 44.7941L19.1456 45.7394C19.2196 46.171 18.7665 46.5002 18.3788 46.2964L17.5299 45.8501C17.4541 45.8103 17.3697 45.7894 17.284 45.7894C17.1984 45.7894 17.114 45.8103 17.0381 45.8501L16.1892 46.2964C15.8016 46.5002 15.3484 46.171 15.4225 45.7394L15.5846 44.7941C15.5991 44.7097 15.5928 44.623 15.5663 44.5415C15.5399 44.46 15.494 44.3862 15.4326 44.3264L14.7461 43.6569Z" stroke="#2C2E40" stroke-miterlimit="10" stroke-linecap="round" stroke-linejoin="round"/>
<path d="M35.3666 41.5267H38.7412C39.4164 41.5267 39.9637 40.9794 39.9637 40.3042V36.3512C39.9637 33.044 37.2356 30.343 33.9187 30.3875C30.6435 30.4315 28.0352 33.154 28.0352 36.4294V40.3041C28.0352 40.9793 28.5825 41.5267 29.2577 41.5267H32.6322M47.651 24.3194C47.1339 22.9916 45.8438 22.0503 44.3332 22.0503C42.3669 22.0503 40.773 23.6442 40.773 25.6105C40.773 27.5768 42.3669 29.1707 44.3332 29.1707C45.7855 29.1707 47.0338 28.3007 47.5876 27.0538" stroke="#2C2E40" stroke-miterlimit="10" stroke-linecap="round" stroke-linejoin="round"/>
</g>
<defs>
<clipPath id="clip0_26_863">
<rect width="40" height="40" fill="white" transform="translate(14 14)"/>
</clipPath>
</defs>
</svg>
