<?xml version="1.0" encoding="utf-8"?><svg xmlns="http://www.w3.org/2000/svg" xmlns:xlink="http://www.w3.org/1999/xlink"><symbol viewBox="0 0 9 9" id="accordion--arrow" xmlns="http://www.w3.org/2000/svg"><path fill-rule="evenodd" clip-rule="evenodd" d="M0.144531 2.70711L0.851638 2L4.49808 5.64645L8.14453 2L8.85164 2.70711L4.49808 7.06066L0.144531 2.70711Z"/></symbol><symbol viewBox="0 0 15 15" id="clock" xmlns="http://www.w3.org/2000/svg"><path fill-rule="evenodd" clip-rule="evenodd" d="M7.5 1.36364C4.11098 1.36364 1.36364 4.11098 1.36364 7.5C1.36364 10.889 4.11098 13.6364 7.5 13.6364C10.889 13.6364 13.6364 10.889 13.6364 7.5C13.6364 4.11098 10.889 1.36364 7.5 1.36364ZM0 7.5C0 3.35786 3.35786 0 7.5 0C11.6421 0 15 3.35786 15 7.5C15 11.6421 11.6421 15 7.5 15C3.35786 15 0 11.6421 0 7.5ZM7.5 2.72727C7.87656 2.72727 8.18182 3.03253 8.18182 3.40909V7.07861L10.5322 8.2538C10.869 8.4222 11.0055 8.83175 10.8371 9.16855C10.6687 9.50536 10.2592 9.64188 9.92235 9.47347L7.19508 8.10984C6.96409 7.99434 6.81818 7.75825 6.81818 7.5V3.40909C6.81818 3.03253 7.12344 2.72727 7.5 2.72727Z"/></symbol><symbol viewBox="0 0 25 25" id="facebook" xmlns="http://www.w3.org/2000/svg"><path d="M15.9918 4.65292H18V1.15492C17.6535 1.10725 16.462 1 15.0742 1C12.1787 1 10.1952 2.82142 10.1952 6.16908V9.25H7V13.1605H10.1952V23H14.1127V13.1614H17.1787L17.6654 9.25092H14.1118V6.55683C14.1127 5.42658 14.417 4.65292 15.9918 4.65292Z"/></symbol><symbol viewBox="0 0 25 25" id="header--burger" xmlns="http://www.w3.org/2000/svg"><rect x="3" y="8" width="20" height="3" rx="1.5"/><rect x="10" y="14" width="13" height="3" rx="1.5"/></symbol><symbol viewBox="0 0 25 25" id="header--cross" xmlns="http://www.w3.org/2000/svg"><path d="M5.43934 5.43934C6.02513 4.85355 6.97487 4.85355 7.56066 5.43934L19.5815 17.4602C20.1673 18.0459 20.1673 18.9957 19.5815 19.5815C18.9957 20.1673 18.0459 20.1673 17.4602 19.5815L5.43934 7.56066C4.85355 6.97487 4.85355 6.02513 5.43934 5.43934Z"/><path d="M19.5815 5.43934C20.1673 6.02513 20.1673 6.97487 19.5815 7.56066L7.56066 19.5815C6.97487 20.1673 6.02513 20.1673 5.43934 19.5815C4.85355 18.9957 4.85355 18.0459 5.43934 17.4602L17.4602 5.43934C18.0459 4.85355 18.9957 4.85355 19.5815 5.43934Z"/></symbol><symbol viewBox="0 0 25 25" id="header--person" xmlns="http://www.w3.org/2000/svg"><path fill-rule="evenodd" clip-rule="evenodd" d="M12.5 6C10.9812 6 9.75 7.23122 9.75 8.75C9.75 10.2688 10.9812 11.5 12.5 11.5C14.0188 11.5 15.25 10.2688 15.25 8.75C15.25 7.23122 14.0188 6 12.5 6ZM7.75 8.75C7.75 6.12665 9.87665 4 12.5 4C15.1234 4 17.25 6.12665 17.25 8.75C17.25 11.3734 15.1234 13.5 12.5 13.5C9.87665 13.5 7.75 11.3734 7.75 8.75ZM12.5 16.8333C9.89097 16.8333 7.50403 17.9685 5.7276 19.8527C5.34873 20.2545 4.71584 20.2731 4.314 19.8943C3.91216 19.5154 3.89353 18.8825 4.2724 18.4807C6.38896 16.2358 9.2874 14.8333 12.5 14.8333C15.7126 14.8333 18.611 16.2358 20.7276 18.4807C21.1065 18.8825 21.0878 19.5154 20.686 19.8943C20.2842 20.2731 19.6513 20.2545 19.2724 19.8527C17.496 17.9685 15.109 16.8333 12.5 16.8333Z"/></symbol><symbol viewBox="0 0 15 15" id="inputs--check" xmlns="http://www.w3.org/2000/svg"><path fill-rule="evenodd" clip-rule="evenodd" d="M14.1369 2.75647L6.7269 13.0165L1 8.56226L2.84182 6.19421L6.11492 8.73995L11.7049 1L14.1369 2.75647Z"/></symbol><symbol viewBox="0 0 25 25" id="linkedin" xmlns="http://www.w3.org/2000/svg"><path d="M4.65627 1.99756C6.09984 1.99874 7.29042 3.19104 7.28731 4.6418C7.28385 6.16089 6.02321 7.30582 4.6385 7.27283C3.23401 7.30126 1.99972 6.12817 2 4.63177C2 3.18046 3.19521 1.99645 4.65627 1.99756Z"/><path d="M6.19272 23.9392H3.09984C2.69844 23.9392 2.37305 23.6138 2.37305 23.2124V10.0181C2.37305 9.61665 2.69844 9.29126 3.09984 9.29126H6.19272C6.59412 9.29126 6.91952 9.61665 6.91952 10.0181V23.2125C6.91945 23.6138 6.59412 23.9392 6.19272 23.9392Z"/><path d="M23.9944 13.9238C23.9944 11.1577 21.7521 8.91528 18.9859 8.91528H18.1926C16.6793 8.91528 15.3423 9.67037 14.5381 10.8245C14.4504 10.9503 14.3692 11.0809 14.2947 11.2158C14.2689 11.2119 14.2536 11.2099 14.2533 11.2106V9.59104C14.2533 9.42444 14.1182 9.2893 13.9515 9.2893H10.0928C9.92615 9.2893 9.79102 9.42437 9.79102 9.59104V23.6357C9.79102 23.8023 9.92602 23.9374 10.0926 23.9375L14.0355 23.9384C14.2021 23.9385 14.3373 23.8034 14.3373 23.6367V15.5227C14.3373 14.1202 15.4559 12.9556 16.8584 12.9397C17.5744 12.9316 18.2234 13.2185 18.6912 13.6866C19.1528 14.148 19.4383 14.7859 19.4383 15.4902V23.6377C19.4383 23.8043 19.5733 23.9394 19.7399 23.9395L23.6925 23.9404C23.8591 23.9405 23.9943 23.8054 23.9943 23.6387V13.9238H23.9944Z"/></symbol><symbol viewBox="0 0 25 25" id="trash" xmlns="http://www.w3.org/2000/svg"><path fill-rule="evenodd" clip-rule="evenodd" d="M12.2453 3H13.7547C14.2291 2.99998 14.6384 2.99997 14.9755 3.02779C15.3313 3.05716 15.6852 3.12199 16.0258 3.29726C16.5338 3.55873 16.9469 3.97595 17.2057 4.48912C17.3792 4.8331 17.4434 5.19057 17.4725 5.54998C17.4972 5.85523 17.4997 6.21906 17.5 6.63636H21.1C21.5971 6.63636 22 7.04338 22 7.54546C22 8.04753 21.5971 8.45455 21.1 8.45455H20.2V17.7648C20.2 18.4966 20.2 19.1006 20.1602 19.5926C20.1189 20.1036 20.0302 20.5733 19.8076 21.0145C19.4625 21.6987 18.9117 22.255 18.2344 22.6037C17.7976 22.8285 17.3325 22.9181 16.8266 22.9598C16.3396 23 15.7417 23 15.0172 23H10.9828C10.2583 23 9.66043 23 9.17336 22.9598C8.66747 22.9181 8.20244 22.8285 7.76564 22.6037C7.08825 22.255 6.53752 21.6987 6.19238 21.0145C5.96981 20.5733 5.88111 20.1036 5.83977 19.5926C5.79998 19.1006 5.79999 18.4966 5.8 17.7648L5.8 8.45455H4.9C4.40294 8.45455 4 8.04753 4 7.54546C4 7.04338 4.40294 6.63636 4.9 6.63636H8.50002C8.50028 6.21906 8.50282 5.85523 8.52751 5.54998C8.55658 5.19057 8.62077 4.8331 8.79428 4.48912C9.05314 3.97595 9.46619 3.55873 9.97423 3.29726C10.3148 3.12199 10.6687 3.05716 11.0245 3.02779C11.3616 2.99997 11.7709 2.99998 12.2453 3ZM7.6 8.45455V17.7273C7.6 18.506 7.6007 19.0353 7.6338 19.4445C7.66603 19.8431 7.72447 20.0469 7.79619 20.1891C7.96876 20.5312 8.24412 20.8093 8.58282 20.9836C8.72358 21.0561 8.92536 21.1151 9.31993 21.1477C9.72501 21.1811 10.2491 21.1818 11.02 21.1818H14.98C15.7509 21.1818 16.275 21.1811 16.6801 21.1477C17.0746 21.1151 17.2764 21.0561 17.4172 20.9836C17.7559 20.8093 18.0312 20.5312 18.2038 20.1891C18.2755 20.0469 18.334 19.8431 18.3662 19.4445C18.3993 19.0353 18.4 18.506 18.4 17.7273V8.45455H7.6ZM15.6999 6.63636H10.3001C10.3005 6.21354 10.3032 5.92453 10.3215 5.69803C10.3415 5.45107 10.3754 5.3595 10.3981 5.31456C10.4844 5.1435 10.6221 5.00443 10.7914 4.91727C10.8359 4.89437 10.9266 4.86011 11.1711 4.83994C11.4261 4.81889 11.7611 4.81818 12.28 4.81818H13.72C14.2389 4.81818 14.5739 4.81889 14.8289 4.83994C15.0734 4.86011 15.1641 4.89437 15.2086 4.91727C15.3779 5.00443 15.5156 5.1435 15.6019 5.31456C15.6246 5.3595 15.6585 5.45107 15.6785 5.69803C15.6968 5.92453 15.6995 6.21354 15.6999 6.63636ZM11.2 11.6364C11.6971 11.6364 12.1 12.0434 12.1 12.5455V17.0909C12.1 17.593 11.6971 18 11.2 18C10.7029 18 10.3 17.593 10.3 17.0909V12.5455C10.3 12.0434 10.7029 11.6364 11.2 11.6364ZM14.8 11.6364C15.2971 11.6364 15.7 12.0434 15.7 12.5455V17.0909C15.7 17.593 15.2971 18 14.8 18C14.3029 18 13.9 17.593 13.9 17.0909V12.5455C13.9 12.0434 14.3029 11.6364 14.8 11.6364Z"/></symbol><symbol viewBox="0 0 25 25" id="twitter" xmlns="http://www.w3.org/2000/svg"><path d="M0.00141765 19.7683C2.26478 21.1819 4.94961 22 7.82765 22C15.9131 22 22.4675 15.5446 22.4675 7.5829C22.4675 7.38411 22.4632 7.18679 22.4555 6.99006C22.7479 6.76342 24.5567 5.33575 25 4.41794C25 4.41794 23.5312 5.01908 22.0936 5.1607C22.0908 5.1607 22.0873 5.16136 22.0844 5.16136C22.0844 5.16136 22.0873 5.15996 22.0922 5.15651C22.2246 5.06935 24.0765 3.8279 24.3273 2.34871C24.3273 2.34871 23.2883 2.8948 21.8337 3.37256C21.5929 3.45134 21.3408 3.52879 21.0809 3.60059C20.1432 2.6151 18.8104 2 17.331 2C14.4933 2 12.1938 4.26383 12.1938 7.05627C12.1938 7.45032 12.2398 7.83386 12.3269 8.20212C11.9304 8.1861 5.89152 7.85268 1.7833 2.9533C1.7833 2.9533 -0.671993 6.25421 3.24646 9.64853C3.24646 9.64853 2.05531 9.60179 1.02765 8.99712C1.02765 8.99712 0.650202 12.9961 5.08774 14.0186C5.08774 14.0186 4.21456 14.3443 2.82155 14.112C2.82155 14.112 3.60055 17.3432 7.54311 17.6452C7.54311 17.6452 4.42553 20.4187 0 19.7679L0.00141765 19.7683Z"/></symbol><symbol viewBox="0 0 25 25" id="vk" xmlns="http://www.w3.org/2000/svg"><path d="M6.26382 6.44514C6.93384 8.12527 7.78299 9.70934 8.90138 11.1314C9.04972 11.3206 9.2367 11.4889 9.43368 11.6259C9.72139 11.8265 9.99285 11.756 10.1098 11.4218C10.2336 11.0711 10.3471 10.3603 10.3539 9.99208C10.3723 9.0298 10.3511 8.39916 10.3002 7.43807C10.2672 6.8225 10.0517 6.282 9.15996 6.11886C8.88458 6.06828 8.85899 5.83811 9.03592 5.6085C9.40423 5.13048 9.91733 5.0543 10.4737 5.02415C11.3755 4.97469 12.2806 5.01505 13.1835 5.02415C13.5513 5.02757 13.9212 5.05766 14.2834 5.13783C14.7559 5.24242 15.0088 5.57891 15.0867 6.04722C15.127 6.28879 15.1477 6.53714 15.1421 6.78158C15.1186 7.83193 15.0688 8.88173 15.057 9.93153C15.052 10.3436 15.0816 10.7659 15.1684 11.1672C15.2899 11.7265 15.6649 11.8669 16.0484 11.4628C16.5353 10.9496 16.9647 10.3721 17.3677 9.78552C18.0998 8.71865 18.6467 7.54782 19.1174 6.34061C19.3609 5.7177 19.5473 5.5824 20.2072 5.58072C21.4476 5.57786 22.688 5.57673 23.9285 5.58072C24.1484 5.58184 24.3785 5.6029 24.5861 5.66998C24.9231 5.77912 25.0569 6.05818 24.978 6.41231C24.7938 7.24216 24.3522 7.94749 23.8792 8.62559C23.1202 9.71345 22.3248 10.7752 21.5479 11.8505C21.4488 11.9875 21.3615 12.1336 21.2803 12.2819C20.9898 12.8151 21.0099 13.114 21.4336 13.5579C22.1081 14.2644 22.8302 14.9254 23.4835 15.6512C23.9582 16.1792 24.3975 16.7521 24.7737 17.3552C25.2495 18.1179 24.9556 18.8363 24.0667 18.9642C23.5076 19.0444 20.7761 18.9649 20.6349 18.9642C19.9006 18.9609 19.2569 18.7022 18.7385 18.1958C18.162 17.632 17.638 17.0136 17.0844 16.4253C16.9176 16.2479 16.7396 16.078 16.5476 15.9296C16.0948 15.5789 15.6503 15.6568 15.4388 16.1968C15.258 16.6606 15.1018 17.8786 15.0945 17.9826C15.0565 18.5266 14.7156 18.8733 14.1155 18.9068C12.3831 19.0023 10.7043 18.8062 9.14045 17.9554C7.81495 17.2346 6.75649 16.2156 5.83962 15.0271C4.38315 13.1394 3.23273 11.0644 2.18243 8.92851C2.12875 8.81932 1.06495 6.52076 1.03637 6.41219C0.941341 6.04865 1.02999 5.70138 1.33248 5.58184C1.52106 5.50734 5.02844 5.58159 5.08678 5.58477C5.64644 5.61554 6.02807 5.8553 6.26382 6.44514Z"/></symbol></svg>