<svg width="320" height="86" viewBox="0 0 320 86" fill="none" xmlns="http://www.w3.org/2000/svg">
<rect width="320" height="86" fill="#2C2E40"/>
<rect width="154" height="86" fill="#E76769"/>
<path d="M49.2624 71.1411C44.2704 71.1232 39.9583 69.9692 36.3262 67.679C32.694 65.3887 29.8938 62.0876 27.9257 57.7755C25.9575 53.4634 24.9823 48.2925 25.0002 42.2627C25.0181 36.215 26.0022 31.0799 27.9525 26.8573C29.9207 22.6347 32.7119 19.423 36.3262 17.2222C39.9583 15.0214 44.2704 13.921 49.2624 13.921C54.2544 13.921 58.5665 15.0304 62.1987 17.249C65.8309 19.4498 68.631 22.6615 70.5992 26.8841C72.5674 31.1067 73.5425 36.2329 73.5246 42.2627C73.5246 48.3282 72.5405 53.5171 70.5724 57.8291C68.6042 62.1412 65.804 65.4424 62.1718 67.7326C58.5576 70.005 54.2544 71.1411 49.2624 71.1411ZM49.2624 59.01C51.8389 59.01 53.9503 57.6681 55.5964 54.9842C57.2604 52.2825 58.0834 48.042 58.0655 42.2627C58.0655 38.4874 57.6898 35.4009 56.9383 33.0033C56.1868 30.6057 55.149 28.8344 53.825 27.6893C52.501 26.5263 50.9801 25.9448 49.2624 25.9448C46.6859 25.9448 44.5835 27.2509 42.9553 29.8632C41.3271 32.4755 40.4951 36.6087 40.4593 42.2627C40.4414 46.1096 40.8082 49.2765 41.5597 51.7636C42.3112 54.2328 43.349 56.0578 44.673 57.2387C46.0149 58.4196 47.5448 59.01 49.2624 59.01Z" fill="white"/>
<path d="M105.219 59.5129V56.6652C105.219 54.3799 105.712 52.2705 106.696 50.3369C107.698 48.4032 109.148 46.8475 111.047 45.6698C112.945 44.492 115.257 43.9031 117.981 43.9031C120.776 43.9031 123.123 44.4832 125.022 45.6434C126.938 46.8036 128.388 48.3505 129.372 50.2841C130.357 52.2178 130.849 54.3448 130.849 56.6652V59.5129C130.849 61.7981 130.348 63.9075 129.346 65.8412C128.362 67.7748 126.911 69.3305 124.995 70.5083C123.079 71.686 120.741 72.2749 117.981 72.2749C115.222 72.2749 112.893 71.686 110.994 70.5083C109.096 69.3305 107.654 67.7748 106.67 65.8412C105.703 63.9075 105.219 61.7981 105.219 59.5129ZM114.395 56.6652V59.5129C114.395 60.5149 114.642 61.5081 115.134 62.4925C115.644 63.4593 116.593 63.9427 117.981 63.9427C119.441 63.9427 120.399 63.4681 120.856 62.5188C121.33 61.5696 121.568 60.5676 121.568 59.5129V56.6652C121.568 55.6104 121.348 54.5909 120.908 53.6065C120.469 52.6221 119.493 52.1299 117.981 52.1299C116.593 52.1299 115.644 52.6221 115.134 53.6065C114.642 54.5909 114.395 55.6104 114.395 56.6652ZM76.9531 28.6098V25.762C76.9531 23.4417 77.4541 21.3147 78.4561 19.381C79.4756 17.4474 80.9347 15.9005 82.8332 14.7403C84.7316 13.5801 87.0256 13 89.7152 13C92.5102 13 94.8569 13.5801 96.7554 14.7403C98.6714 15.9005 100.122 17.4474 101.106 19.381C102.09 21.3147 102.583 23.4417 102.583 25.762V28.6098C102.583 30.9301 102.082 33.0484 101.08 34.9644C100.095 36.8805 98.6451 38.4098 96.729 39.5524C94.8129 40.695 92.475 41.2663 89.7152 41.2663C86.9553 41.2663 84.6262 40.6862 82.7277 39.5261C80.8292 38.3659 79.3878 36.8277 78.4034 34.9117C77.4365 32.9956 76.9531 30.895 76.9531 28.6098ZM86.2346 25.762V28.6098C86.2346 29.6645 86.4807 30.6665 86.9729 31.6157C87.4651 32.5649 88.3792 33.0396 89.7152 33.0396C91.1742 33.0396 92.1322 32.5649 92.5893 31.6157C93.0639 30.6665 93.3012 29.6645 93.3012 28.6098V25.762C93.3012 24.7073 93.0815 23.6878 92.642 22.7034C92.2025 21.719 91.2269 21.2268 89.7152 21.2268C88.3265 21.2268 87.3948 21.7365 86.9202 22.7561C86.4631 23.7581 86.2346 24.7601 86.2346 25.762ZM81.4357 69.6381L118.562 15.6368H126.05L88.9241 69.6381H81.4357Z" fill="white"/>
<path d="M185.427 17.3604V19.6836H180V29.8421H177V17.3604H185.427ZM178.886 21.6553H181.569C182.581 21.6553 183.461 21.8239 184.21 22.1611C184.958 22.4983 185.535 22.9698 185.941 23.5756C186.353 24.1813 186.558 24.89 186.558 25.7016C186.558 26.3131 186.441 26.8731 186.207 27.3818C185.973 27.8847 185.635 28.3219 185.195 28.6934C184.761 29.0591 184.238 29.342 183.627 29.5421C183.015 29.7421 182.329 29.8421 181.569 29.8421H177.009V17.3604H180.026V27.5275H181.569C181.998 27.5275 182.358 27.4446 182.649 27.2789C182.947 27.1132 183.172 26.8931 183.327 26.6188C183.481 26.3388 183.558 26.0273 183.558 25.6844C183.558 25.3529 183.481 25.0586 183.327 24.8014C183.172 24.5443 182.947 24.3414 182.649 24.1928C182.358 24.0442 181.998 23.9699 181.569 23.9699H178.886V21.6553Z" fill="white"/>
<path d="M196.563 27.5275V29.8421H189.91V27.5275H196.563ZM190.982 17.3604V29.8421H187.973V17.3604H190.982ZM195.705 22.3154V24.5528H189.91V22.3154H195.705ZM196.588 17.3604V19.6836H189.91V17.3604H196.588Z" fill="white"/>
<path d="M204.895 25.6158H207.896C207.856 26.4845 207.621 27.2503 207.193 27.9133C206.764 28.5762 206.17 29.0934 205.409 29.4649C204.655 29.8307 203.764 30.0136 202.735 30.0136C201.9 30.0136 201.155 29.8735 200.497 29.5935C199.846 29.3135 199.292 28.9105 198.834 28.3848C198.383 27.859 198.037 27.2218 197.797 26.4731C197.563 25.7244 197.446 24.8814 197.446 23.9442V23.2669C197.446 22.3297 197.568 21.4867 197.814 20.738C198.066 19.9837 198.42 19.3436 198.877 18.8178C199.34 18.2863 199.894 17.8805 200.54 17.6005C201.186 17.3204 201.903 17.1804 202.692 17.1804C203.778 17.1804 204.695 17.3747 205.444 17.7634C206.192 18.152 206.773 18.6863 207.184 19.3664C207.595 20.0408 207.838 20.8095 207.913 21.6724H204.912C204.901 21.2038 204.821 20.8123 204.672 20.498C204.524 20.178 204.289 19.9379 203.969 19.7779C203.649 19.6179 203.223 19.5379 202.692 19.5379C202.321 19.5379 201.998 19.6065 201.723 19.7436C201.449 19.8808 201.22 20.098 201.037 20.3951C200.855 20.6923 200.717 21.0781 200.626 21.5524C200.54 22.0211 200.497 22.5869 200.497 23.2498V23.9442C200.497 24.6071 200.537 25.1729 200.617 25.6415C200.697 26.1102 200.826 26.4931 201.003 26.7903C201.18 27.0875 201.409 27.3075 201.689 27.4504C201.975 27.5875 202.323 27.6561 202.735 27.6561C203.192 27.6561 203.578 27.5847 203.892 27.4418C204.206 27.2932 204.449 27.0703 204.621 26.7731C204.792 26.4702 204.884 26.0845 204.895 25.6158Z" fill="white"/>
<path d="M219.794 17.3604V29.8421H216.785V19.6836H212.302V29.8421H209.301V17.3604H219.794Z" fill="white"/>
<path d="M230.15 17.3604V19.6836H223.703V17.3604H230.15ZM232.182 17.3604V29.8421H229.173V17.3604H232.182ZM223.498 17.3604H226.489L226.164 23.7041C226.112 24.6643 226.015 25.493 225.872 26.1902C225.729 26.8817 225.538 27.4646 225.298 27.939C225.058 28.4076 224.769 28.782 224.432 29.062C224.095 29.342 223.703 29.5421 223.258 29.6621C222.818 29.7821 222.323 29.8421 221.775 29.8421H221.046V27.5275L221.372 27.4932C221.634 27.4646 221.866 27.3932 222.066 27.2789C222.266 27.1589 222.437 26.9817 222.58 26.7474C222.729 26.5131 222.852 26.213 222.949 25.8473C223.046 25.4815 223.123 25.0386 223.18 24.5185C223.243 23.9928 223.286 23.3784 223.309 22.6754L223.498 17.3604Z" fill="white"/>
<path d="M239.503 19.9837L236.459 29.8421H233.227L237.814 17.3604H239.863L239.503 19.9837ZM242.023 29.8421L238.971 19.9837L238.577 17.3604H240.651L245.263 29.8421H242.023ZM241.903 25.1872V27.5104H235.499V25.1872H241.903Z" fill="white"/>
<path d="M251.196 17.3604V29.8421H248.187V17.3604H251.196ZM254.95 17.3604V19.6836H244.518V17.3604H254.95Z" fill="white"/>
<path d="M264.637 22.3154V24.63H258.234V22.3154H264.637ZM259.237 17.3604V29.8421H256.228V17.3604H259.237ZM266.66 17.3604V29.8421H263.66V17.3604H266.66Z" fill="white"/>
<path d="M270.441 21.6553H273.124C274.136 21.6553 275.016 21.8239 275.765 22.1611C276.513 22.4983 277.09 22.9698 277.496 23.5756C277.908 24.1813 278.113 24.89 278.113 25.7016C278.113 26.3131 277.996 26.8731 277.762 27.3818C277.528 27.8847 277.19 28.3219 276.75 28.6934C276.316 29.0591 275.793 29.342 275.182 29.5421C274.57 29.7421 273.884 29.8421 273.124 29.8421H268.564V17.3604H271.581V27.5275H273.124C273.553 27.5275 273.913 27.4446 274.204 27.2789C274.502 27.1132 274.727 26.8931 274.882 26.6188C275.036 26.3388 275.113 26.0273 275.113 25.6844C275.113 25.3529 275.036 25.0586 274.882 24.8014C274.727 24.5443 274.502 24.3414 274.204 24.1928C273.913 24.0442 273.553 23.9699 273.124 23.9699H270.441V21.6553ZM282.023 17.3604V29.8421H279.022V17.3604H282.023Z" fill="white"/>
<path d="M286.72 25.2386L291.204 17.3604H294.213V29.8421H291.204V21.9725L286.72 29.8421H283.711V17.3604H286.72V25.2386ZM290.175 14H292.155C292.155 14.5144 292.024 14.9716 291.761 15.3716C291.504 15.7659 291.138 16.0746 290.664 16.2974C290.189 16.5203 289.629 16.6318 288.983 16.6318C288.006 16.6318 287.232 16.3889 286.66 15.9031C286.089 15.4116 285.803 14.7772 285.803 14H287.775C287.775 14.28 287.866 14.5315 288.049 14.7544C288.232 14.9773 288.543 15.0887 288.983 15.0887C289.423 15.0887 289.732 14.9773 289.909 14.7544C290.086 14.5315 290.175 14.28 290.175 14Z" fill="white"/>
<path d="M190.19 57.0587H185.133V53.5131H188.881C189.754 53.5131 190.459 53.3721 190.996 53.09C191.533 52.7946 191.929 52.3782 192.184 51.841C192.44 51.2904 192.567 50.6457 192.567 49.9071C192.567 49.3564 192.419 48.8461 192.124 48.376C191.842 47.9059 191.405 47.5299 190.815 47.2478C190.224 46.9658 189.471 46.8248 188.558 46.8248C187.86 46.8248 187.222 46.9389 186.644 47.1673C186.067 47.3956 185.61 47.7313 185.275 48.1745C184.939 48.6043 184.771 49.1415 184.771 49.7862H177.72C177.72 48.47 178.009 47.2949 178.586 46.2607C179.164 45.2266 179.949 44.3469 180.943 43.6217C181.95 42.8964 183.106 42.3458 184.408 41.9697C185.724 41.5802 187.108 41.3855 188.558 41.3855C190.237 41.3855 191.755 41.5668 193.111 41.9294C194.468 42.2786 195.629 42.8024 196.596 43.5008C197.577 44.1992 198.329 45.0721 198.853 46.1197C199.376 47.1538 199.638 48.3559 199.638 49.7257C199.638 50.733 199.41 51.6799 198.953 52.5663C198.51 53.4527 197.872 54.2316 197.039 54.9031C196.207 55.5747 195.206 56.1052 194.038 56.4946C192.883 56.8707 191.6 57.0587 190.19 57.0587ZM185.133 55.2658H190.19C191.761 55.2658 193.158 55.4336 194.38 55.7694C195.602 56.1052 196.637 56.5954 197.483 57.24C198.342 57.8847 198.994 58.6838 199.437 59.6373C199.88 60.5775 200.102 61.6586 200.102 62.8808C200.102 64.2507 199.813 65.4728 199.235 66.5473C198.671 67.6083 197.872 68.5081 196.838 69.2468C195.804 69.9854 194.582 70.5428 193.172 70.9188C191.775 71.2949 190.237 71.4829 188.558 71.4829C187.202 71.4829 185.852 71.3218 184.509 70.9994C183.179 70.6637 181.971 70.1533 180.883 69.4684C179.795 68.7834 178.922 67.9037 178.264 66.8293C177.619 65.7549 177.297 64.4656 177.297 62.9614H184.388C184.388 63.5523 184.563 64.0828 184.912 64.5529C185.275 65.0229 185.771 65.3923 186.403 65.6609C187.034 65.9295 187.752 66.0638 188.558 66.0638C189.498 66.0638 190.297 65.916 190.956 65.6206C191.627 65.3251 192.137 64.9222 192.487 64.4118C192.836 63.9015 193.01 63.3374 193.01 62.7196C193.01 61.9944 192.923 61.3833 192.748 60.8864C192.574 60.376 192.312 59.9664 191.963 59.6575C191.614 59.3352 191.177 59.1068 190.653 58.9725C190.143 58.8248 189.552 58.7509 188.881 58.7509H185.133V55.2658Z" fill="white"/>
<path d="M216.702 47.9328L209.55 71.1002H201.955L212.733 41.7683H217.548L216.702 47.9328ZM222.624 71.1002L215.453 47.9328L214.526 41.7683H219.401L230.239 71.1002H222.624ZM222.342 60.1611V65.6206H207.294V60.1611H222.342Z" fill="white"/>
<path d="M239.063 60.282L249.599 41.7683H256.67V71.1002H249.599V52.6066L239.063 71.1002H231.992V41.7683H239.063V60.282ZM247.182 33.8712H251.835C251.835 35.0799 251.526 36.1544 250.909 37.0945C250.304 38.0212 249.445 38.7464 248.33 39.2702C247.215 39.794 245.899 40.0559 244.381 40.0559C242.085 40.0559 240.265 39.4851 238.922 38.3435C237.579 37.1885 236.907 35.6977 236.907 33.8712H241.541C241.541 34.5293 241.756 35.1202 242.186 35.644C242.615 36.1678 243.347 36.4297 244.381 36.4297C245.416 36.4297 246.141 36.1678 246.557 35.644C246.974 35.1202 247.182 34.5293 247.182 33.8712Z" fill="white"/>
<path d="M264.507 41.7683H270.268L276.816 62.1757L283.363 41.7683H289.125L279.153 71.1002H274.479L264.507 41.7683ZM261.002 41.7683H266.965L268.073 64.2507V71.1002H261.002V41.7683ZM286.667 41.7683H292.65V71.1002H285.559V64.2507L286.667 41.7683Z" fill="white"/>
</svg>
